<svg width="75" height="46" viewBox="0 0 75 46" fill="none" xmlns="http://www.w3.org/2000/svg">
<path d="M4.40091 5.95404C4.97915 2.95278 7.65402 0.845703 10.7105 0.845703H63.7446C66.5301 0.845703 69.0444 2.59433 69.7307 5.29397C72.7619 17.2189 72.5504 32.1854 69.8321 41.5608C69.1217 44.011 66.7626 45.4795 64.2115 45.4795H10.9859C7.80517 45.4795 5.0695 43.1981 4.54789 40.0605C2.46886 27.5543 1.89892 18.9402 4.40091 5.95404Z" fill="#494949"/>
<path d="M69.3234 3.7524C68.2438 1.26121 65.2752 0.776814 63.9258 0.846014C71.9184 11.5374 67.2474 40.6013 64.5486 45.5837C69.7386 45.1685 69.3234 42.9887 70.569 37.6949C71.8146 32.4011 72.0222 22.5401 71.9184 20.2566C71.8146 17.973 70.6728 6.86639 69.3234 3.7524Z" fill="#535353"/>
<path d="M5.40711 3.7524C6.48662 1.26121 9.45529 0.776814 10.8047 0.846014C2.81212 11.5374 7.4831 40.6013 10.1819 45.5837C4.99191 45.1685 5.40711 42.9887 4.16151 37.6949C2.91592 32.4011 2.70832 22.5401 2.81212 20.2566C2.91592 17.973 4.05771 6.86639 5.40711 3.7524Z" fill="#535353"/>
<rect x="0.296875" y="13.2959" width="74.3205" height="24.4967" rx="3.28492" fill="#3A3A3A"/>
<path d="M5.38281 22.0203L69.4272 21.3975L69.1073 22.517C68.8051 23.5747 67.8384 24.3038 66.7384 24.3038H7.71073C6.75706 24.3038 5.91304 23.6867 5.62388 22.7779L5.38281 22.0203Z" fill="#2B2B2B"/>
<path d="M5.28516 15.4917C5.28516 14.2822 6.26563 13.3018 7.4751 13.3018H67.5171C68.5754 13.3018 69.4333 14.1597 69.4333 15.218V20.5952C69.4333 21.9559 68.3303 23.0589 66.9696 23.0589H7.4751C6.26563 23.0589 5.28516 22.0785 5.28516 20.869V15.4917Z" fill="#636161"/>
<path d="M4.875 4.54957C4.875 2.50452 6.53284 0.84668 8.57789 0.84668H66.5938C68.1648 0.84668 69.4384 2.12023 69.4384 3.69123C69.4384 7.39431 66.4364 10.3962 62.7333 10.3962H10.7217C7.49265 10.3962 4.875 7.7786 4.875 4.54957Z" fill="#616060"/>
<path d="M6.86734 3.76209C6.86734 3.67007 6.87181 3.57913 6.88053 3.48948L6.74431 3.47622C6.76309 3.28318 6.80071 3.09566 6.85529 2.91551L6.98628 2.95519C7.0395 2.77955 7.10965 2.61124 7.19485 2.45216L7.0742 2.38753C7.16471 2.21856 7.27138 2.05954 7.39215 1.91255L7.49791 1.99944C7.61347 1.85879 7.74257 1.72968 7.88322 1.61412L7.79634 1.50836C7.94333 1.38759 8.10235 1.28092 8.27132 1.19041L8.33595 1.31106C8.49502 1.22586 8.66333 1.15571 8.83898 1.10249L8.7993 0.971498C8.97945 0.916918 9.16697 0.879304 9.36001 0.860517L9.37327 0.996745C9.46292 0.98802 9.55386 0.983551 9.64588 0.983551H9.92034V0.84668H10.4692V0.983551H11.0182V0.84668H11.5671V0.983551H12.116V0.84668H12.6649V0.983551H13.2138V0.84668H13.7627V0.983551H14.3116V0.84668H14.8605V0.983551H15.4094V0.84668H15.9583V0.983551H16.5072V0.84668H17.0561V0.983551H17.6051V0.84668H18.154V0.983551H18.7029V0.84668H19.2518V0.983551H19.8007V0.84668H20.3496V0.983551H20.8985V0.84668H21.4474V0.983551H21.9963V0.84668H22.5452V0.983551H23.0941V0.84668H23.643V0.983551H24.1919V0.84668H24.7409V0.983551H25.2898V0.84668H25.8387V0.983551H26.3876V0.84668H26.9365V0.983551H27.4854V0.84668H28.0343V0.983551H28.5832V0.84668H29.1321V0.983551H29.681V0.84668H30.2299V0.983551H30.7788V0.84668H31.3278V0.983551H31.8767V0.84668H32.4256V0.983551H32.9745V0.84668H33.5234V0.983551H34.0723V0.84668H34.6212V0.983551H35.1701V0.84668H35.719V0.983551H36.2679V0.84668H36.8168V0.983551H37.3657V0.84668H37.9147V0.983551H38.4636V0.84668H39.0125V0.983551H39.5614V0.84668H40.1103V0.983551H40.6592V0.84668H41.2081V0.983551H41.757V0.84668H42.3059V0.983551H42.8548V0.84668H43.4037V0.983551H43.9526V0.84668H44.5016V0.983551H45.0505V0.84668H45.5994V0.983551H46.1483V0.84668H46.6972V0.983551H47.2461V0.84668H47.795V0.983551H48.3439V0.84668H48.8928V0.983551H49.4417V0.84668H49.9906V0.983551H50.5395V0.84668H51.0885V0.983551H51.6374V0.84668H52.1863V0.983551H52.7352V0.84668H53.2841V0.983551H53.833V0.84668H54.3819V0.983551H54.9308V0.84668H55.4797V0.983551H56.0286V0.84668H56.5775V0.983551H57.1264V0.84668H57.6754V0.983551H58.2243V0.84668H58.7732V0.983551H59.3221V0.84668H59.871V0.983551H60.4199V0.84668H60.9688V0.983551H61.5177V0.84668H62.0666V0.983551H62.6155V0.84668H63.1644V0.983551H63.7133V0.84668H64.2622V0.983551H64.5367C64.6277 0.983551 64.7173 0.989464 64.805 1.00091L64.8227 0.86519C65.0159 0.890381 65.2011 0.940735 65.375 1.01285L65.3226 1.13929C65.4894 1.20847 65.6452 1.29905 65.7865 1.40765L65.8699 1.29912C66.0216 1.41571 66.1576 1.55171 66.2742 1.70342L66.1657 1.78682C66.2743 1.92814 66.3649 2.08393 66.434 2.25077L66.5605 2.19834C66.6326 2.37225 66.6829 2.55747 66.7081 2.7506L66.5724 2.7683C66.5839 2.85606 66.5898 2.94562 66.5898 3.03662V3.16105H66.7267V3.4099H66.5898V3.53433C66.5898 3.62973 66.5871 3.72449 66.5819 3.81856L66.7186 3.82612C66.7077 4.02251 66.686 4.21599 66.6539 4.40598L66.519 4.38321C66.4872 4.57153 66.445 4.75631 66.3931 4.93693L66.5246 4.97477C66.4705 5.16285 66.4061 5.34657 66.332 5.52525L66.2056 5.47283C66.1327 5.64852 66.0502 5.81924 65.9588 5.98431L66.0785 6.05063C65.984 6.22128 65.8802 6.38606 65.7677 6.54427L65.6562 6.46497C65.5463 6.61959 65.4279 6.76777 65.3017 6.90885L65.4038 7.00009C65.2741 7.14513 65.1363 7.28285 64.9913 7.41256L64.9001 7.31053C64.759 7.4367 64.6108 7.55506 64.4562 7.66497L64.5355 7.77653C64.3773 7.88899 64.2125 7.99282 64.0418 8.08733L63.9755 7.9676C63.8104 8.05903 63.6397 8.1415 63.464 8.21435L63.5165 8.34079C63.3378 8.41489 63.1541 8.47931 62.966 8.53341L62.9281 8.40187C62.7475 8.45382 62.5627 8.49599 62.3744 8.52777L62.3972 8.66273C62.2072 8.69479 62.0137 8.71654 61.8173 8.7274L61.8098 8.59074C61.7157 8.59594 61.6209 8.59858 61.5255 8.59858H61.2548V8.73545H60.7132V8.59858H60.1717V8.73545H59.6301V8.59858H59.0886V8.73545H58.5471V8.59858H58.0055V8.73545H57.464V8.59858H56.9224V8.73545H56.3809V8.59858H55.8394V8.73545H55.2978V8.59858H54.7563V8.73545H54.2147V8.59858H53.6732V8.73545H53.1317V8.59858H52.5901V8.73545H52.0486V8.59858H51.507V8.73545H50.9655V8.59858H50.424V8.73545H49.8824V8.59858H49.3409V8.73545H48.7993V8.59858H48.2578V8.73545H47.7163V8.59858H47.1747V8.73545H46.6332V8.59858H46.0916V8.73545H45.5501V8.59858H45.0086V8.73545H44.467V8.59858H43.9255V8.73545H43.3839V8.59858H42.8424V8.73545H42.3009V8.59858H41.7593V8.73545H41.2178V8.59858H40.6762V8.73545H40.1347V8.59858H39.5932V8.73545H39.0516V8.59858H38.5101V8.73545H37.9685V8.59858H37.427V8.73545H36.8855V8.59858H36.3439V8.73545H35.8024V8.59858H35.2608V8.73545H34.7193V8.59858H34.1778V8.73545H33.6362V8.59858H33.0947V8.73545H32.5531V8.59858H32.0116V8.73545H31.4701V8.59858H30.9285V8.73545H30.387V8.59858H29.8454V8.73545H29.3039V8.59858H28.7623V8.73545H28.2208V8.59858H27.6793V8.73545H27.1377V8.59858H26.5962V8.73545H26.0546V8.59858H25.5131V8.73545H24.9716V8.59858H24.43V8.73545H23.8885V8.59858H23.3469V8.73545H22.8054V8.59858H22.2638V8.73545H21.7223V8.59858H21.1808V8.73545H20.6392V8.59858H20.0977V8.73545H19.5561V8.59858H19.0146V8.73545H18.473V8.59858H17.9315V8.73545H17.39V8.59858H16.8484V8.73545H16.3069V8.59858H15.7653V8.73545H15.2238V8.59858H14.6823V8.73545H14.1407V8.59858H13.5992V8.73545H13.0576V8.59858H12.5161V8.73545H11.9745V8.59858H11.7038C11.6127 8.59858 11.5222 8.59606 11.4324 8.59109L11.4248 8.72776C11.237 8.71737 11.052 8.69657 10.8703 8.66592L10.8931 8.53095C10.7133 8.5006 10.5368 8.46033 10.3643 8.41072L10.3265 8.54226C10.1466 8.49053 9.97094 8.42892 9.80008 8.35807L9.85251 8.23164C9.68472 8.16206 9.52168 8.0833 9.36403 7.99598L9.29771 8.11572C9.13454 8.02534 8.97697 7.92605 8.82569 7.81852L8.90499 7.70696C8.75733 7.602 8.6158 7.48895 8.48107 7.36847L8.38983 7.47049C8.25114 7.34647 8.11945 7.21478 7.99542 7.07609L8.09745 6.98485C7.97696 6.85011 7.86392 6.70859 7.75896 6.56093L7.6474 6.64023C7.53986 6.48894 7.44058 6.33138 7.3502 6.1682L7.46994 6.10189C7.38262 5.94423 7.30386 5.7812 7.23428 5.61341L7.10785 5.66583C7.037 5.49497 6.97539 5.3193 6.92366 5.13945L7.0552 5.10162C7.00559 4.92912 6.96531 4.75265 6.93497 4.5728L6.8 4.59557C6.76935 4.41391 6.74855 4.22889 6.73816 4.04111L6.87483 4.03355C6.86986 3.94371 6.86734 3.8532 6.86734 3.76209Z" fill="#515050" stroke="#616161" stroke-width="0.273743" stroke-dasharray="0.55 0.55"/>
<path d="M72.543 13.2959C73.6895 13.2959 74.619 14.2254 74.619 15.3719V35.7166C74.619 36.8632 73.6895 37.7926 72.543 37.7926V13.2959Z" fill="#565656"/>
<path d="M2.36719 13.2959C1.22065 13.2959 0.291195 14.2254 0.291195 15.3719V35.7166C0.291195 36.8632 1.22065 37.7926 2.36719 37.7926V13.2959Z" fill="#565656"/>
<rect x="57.8008" y="29.6953" width="11.418" height="3.32159" rx="1.66079" fill="#2D2D2D"/>
<rect x="7.98828" y="15.9951" width="11.0028" height="2.90639" rx="1.36872" fill="#919191"/>
<rect x="34.1406" y="2.29297" width="11.418" height="1.038" rx="0.518998" fill="#7C7C7C"/>
<rect x="53.2344" y="29.6953" width="3.32159" height="3.32159" rx="1.66079" fill="#2D2D2D"/>
</svg>
