<svg width="193" height="171" viewBox="0 0 193 171" fill="none" xmlns="http://www.w3.org/2000/svg">
<path d="M121.079 54.9102C121.079 54.9102 129.84 56.3875 130.546 56.5776C131.252 56.7677 134.027 58.0821 134.169 58.9294C134.242 60.0417 134.242 61.1575 134.169 62.2697C134.169 62.2697 133.664 62.6771 133.354 61.8624C133.146 61.0706 133.057 60.2525 133.088 59.4345L131.534 58.8371L132.382 60.3416L132.523 63.8666C132.523 63.8666 131.437 63.7688 131.225 62.927C131.092 62.3405 131.022 61.7414 131.018 61.14L129.889 60.1841L130.736 61.3301L131.018 63.8666C131.018 63.8666 130.193 64.1382 129.932 63.5733C129.741 62.8409 129.646 62.0869 129.65 61.3301L126.456 60.2112L124.343 61.3899L120.395 59.1847L121.079 54.9102Z" fill="#FFBE9D"/>
<path d="M90.4029 33.2559C90.4463 33.4297 100.962 47.9207 100.962 47.9207L122.09 54.4928L121.129 62.4281L95.2369 57.2139L86.0469 46.6661L90.4029 33.2559Z" fill="#3C8AFF"/>
<g opacity="0.2">
<path d="M90.4029 33.2559C90.4463 33.4297 100.962 47.9207 100.962 47.9207L122.09 54.4928L121.129 62.4281L95.2369 57.2139L86.0469 46.6661L90.4029 33.2559Z" fill="black"/>
</g>
<path d="M53.5991 53.1826H10.43C9.51511 53.1826 8.77344 53.9243 8.77344 54.8392V59.9393C8.77344 60.8542 9.51511 61.5959 10.43 61.5959H53.5991C54.514 61.5959 55.2557 60.8542 55.2557 59.9393V54.8392C55.2557 53.9243 54.514 53.1826 53.5991 53.1826Z" fill="#F5F5F5"/>
<path d="M53.6044 61.5946C53.6044 61.5946 53.6967 61.5946 53.876 61.5566C54.2213 61.4931 54.5369 61.3197 54.7757 61.0623C55.0145 60.8049 55.1637 60.4772 55.2012 60.1281C55.2012 59.6176 55.2012 59.0093 55.2012 58.3358C55.2012 57.6623 55.2012 56.9073 55.2012 56.0872C55.2012 55.6744 55.2012 55.2453 55.2012 54.7999C55.1941 54.5795 55.1422 54.3628 55.0489 54.163C54.9555 53.9632 54.8226 53.7845 54.6581 53.6376C54.4797 53.4867 54.2701 53.3773 54.0444 53.3171C53.8037 53.2647 53.5566 53.2482 53.3111 53.2682H51.7251H48.2762L10.4679 53.3117C10.2565 53.3114 10.0473 53.3552 9.85367 53.4403C9.66008 53.5254 9.48637 53.6499 9.34362 53.806C9.20255 53.9638 9.09513 54.1488 9.0279 54.3496C8.96066 54.5503 8.93502 54.7627 8.95256 54.9737C8.95256 55.8862 8.95256 56.7932 8.95256 57.6894V59.7262C8.94219 59.9341 8.96047 60.1425 9.00688 60.3454C9.08799 60.6391 9.25482 60.9018 9.48606 61.1002C9.71729 61.2985 10.0024 61.4234 10.305 61.4588C10.4951 61.4588 10.7286 61.4588 10.9459 61.4588H20.9832L37.9782 61.4914L49.4385 61.5349L52.5561 61.562H53.3654H53.6424H53.3654H52.5561L49.4385 61.5892L37.9782 61.6327L20.9832 61.6652H10.9079C10.6852 61.6652 10.4788 61.6652 10.2344 61.6652C9.99801 61.6368 9.76933 61.563 9.56088 61.448C9.35315 61.3326 9.17036 61.1772 9.02306 60.9908C8.87576 60.8043 8.76688 60.5905 8.70272 60.3617C8.64421 60.1349 8.62221 59.9002 8.63754 59.6665V57.6514C8.63754 56.7552 8.63754 55.8482 8.63754 54.9357C8.62304 54.6894 8.65732 54.4427 8.73841 54.2096C8.8195 53.9766 8.9458 53.7619 9.11008 53.5778C9.27815 53.392 9.48354 53.2436 9.71284 53.1426C9.94214 53.0415 10.1902 52.9899 10.4408 52.9912L48.249 53.0347H53.284C53.5446 53.0239 53.8055 53.0458 54.0607 53.0999C54.3092 53.1673 54.5394 53.2898 54.7342 53.4583C54.9178 53.6175 55.0663 53.8132 55.1701 54.033C55.2739 54.2528 55.3307 54.4918 55.337 54.7347C55.337 55.1801 55.337 55.6146 55.337 56.0274C55.337 56.8476 55.337 57.5971 55.337 58.276C55.337 58.9549 55.337 59.547 55.3099 60.0793C55.2497 60.5297 55.0134 60.938 54.6527 61.2144C54.4329 61.3791 54.1751 61.4856 53.9031 61.524C53.808 61.5633 53.7071 61.5872 53.6044 61.5946Z" fill="#263238"/>
<path d="M170.819 169.102C183.07 168.514 192.525 158.105 191.937 145.853C191.348 133.602 180.939 124.147 168.687 124.735C156.436 125.324 146.981 135.733 147.569 147.984C148.158 160.236 158.567 169.691 170.819 169.102Z" fill="#263238"/>
<path d="M147.552 146.544C147.552 146.544 147.552 146.582 147.552 146.604C147.502 152.471 149.776 158.119 153.877 162.314C157.978 166.51 163.573 168.912 169.439 168.997C175.306 169.082 180.967 166.842 185.188 162.766C189.408 158.69 191.844 153.11 191.964 147.245C191.964 147.245 191.964 147.207 191.964 147.185L147.552 146.544Z" fill="#263238"/>
<path d="M154.162 146.696C154.117 149.78 154.988 152.808 156.664 155.397C158.34 157.986 160.746 160.02 163.578 161.241C166.41 162.463 169.541 162.817 172.574 162.259C175.608 161.701 178.407 160.257 180.62 158.107C182.832 155.958 184.357 153.201 185.002 150.185C185.648 147.169 185.384 144.03 184.245 141.164C183.106 138.298 181.143 135.834 178.603 134.083C176.064 132.333 173.062 131.375 169.978 131.331C165.843 131.271 161.854 132.857 158.888 135.738C155.922 138.62 154.222 142.561 154.162 146.696Z" fill="#FAFAFA"/>
<path d="M169.977 131.331C165.842 131.271 161.852 132.857 158.886 135.738C155.92 138.62 154.22 142.561 154.16 146.696L185.342 147.147C185.402 143.012 183.816 139.023 180.935 136.057C178.053 133.091 174.111 131.391 169.977 131.331Z" fill="#E0E0E0"/>
<path d="M160.259 146.783C160.231 148.662 160.761 150.507 161.782 152.084C162.803 153.662 164.268 154.901 165.994 155.646C167.719 156.39 169.626 156.606 171.474 156.267C173.322 155.927 175.028 155.047 176.376 153.738C177.724 152.429 178.653 150.749 179.047 148.912C179.44 147.075 179.279 145.162 178.586 143.416C177.892 141.669 176.696 140.168 175.149 139.102C173.602 138.036 171.773 137.452 169.894 137.425C167.376 137.389 164.946 138.354 163.139 140.109C161.332 141.864 160.296 144.265 160.259 146.783Z" fill="#263238"/>
<path d="M159.215 114.356C159.215 114.356 181.951 107.48 191.353 132.182L143.773 146.923L159.215 114.356Z" fill="#3C8AFF"/>
<path d="M33.7952 169.104C46.0468 168.516 55.5017 158.107 54.9132 145.855C54.3247 133.604 43.9157 124.149 31.6641 124.737C19.4124 125.326 9.95753 135.735 10.546 147.986C11.1345 160.238 21.5435 169.693 33.7952 169.104Z" fill="#263238"/>
<path d="M10.5242 146.544C10.5242 146.544 10.5242 146.582 10.5242 146.604C10.4749 152.471 12.7491 158.119 16.8501 162.314C20.9511 166.51 26.5457 168.912 32.4121 168.997C38.2785 169.082 43.9401 166.842 48.1605 162.766C52.3809 158.69 54.8171 153.11 54.9371 147.245V147.174L10.5242 146.544Z" fill="#263238"/>
<path d="M17.154 146.696C17.1092 149.78 17.9799 152.808 19.656 155.397C21.3321 157.986 23.7384 160.02 26.5704 161.241C29.4025 162.463 32.5331 162.817 35.5665 162.259C38.5998 161.701 41.3996 160.257 43.6118 158.107C45.824 155.958 47.3492 153.201 47.9945 150.185C48.6398 147.169 48.3763 144.03 47.2372 141.164C46.0982 138.298 44.1347 135.834 41.5952 134.083C39.0557 132.333 36.0542 131.375 32.9703 131.331C28.8354 131.271 24.8463 132.857 21.8802 135.738C18.9141 138.62 17.2141 142.561 17.154 146.696Z" fill="#FAFAFA"/>
<path d="M32.947 131.33C28.8158 131.277 24.8322 132.865 21.8708 135.746C18.9095 138.627 17.2124 142.565 17.1523 146.696L48.3342 147.147C48.3637 145.098 47.9889 143.063 47.2313 141.158C46.4737 139.254 45.3482 137.518 43.9191 136.049C42.49 134.58 40.7854 133.407 38.9027 132.598C37.02 131.788 34.9962 131.357 32.947 131.33Z" fill="#E0E0E0"/>
<path d="M23.2237 146.783C23.196 148.662 23.726 150.507 24.7468 152.084C25.7676 153.662 27.2333 154.901 28.9585 155.646C30.6837 156.39 32.591 156.606 34.439 156.267C36.2871 155.927 37.9929 155.047 39.3408 153.738C40.6887 152.429 41.618 150.749 42.0114 148.912C42.4047 147.075 42.2443 145.162 41.5505 143.416C40.8567 141.669 39.6606 140.168 38.1135 139.102C36.5664 138.036 34.7379 137.452 32.8591 137.425C30.3405 137.389 27.9106 138.354 26.1037 140.109C24.2968 141.864 23.2609 144.265 23.2237 146.783Z" fill="#263238"/>
<path d="M64.3166 138.006C64.1917 138.071 52.6282 136.219 52.6282 136.219C52.003 137.035 51.2071 137.705 50.2962 138.181C49.3852 138.658 48.3812 138.93 47.3542 138.978C42.3573 139.217 37.4745 139.44 33.2325 139.63C31.3372 139.714 29.5527 140.547 28.27 141.945C26.9873 143.342 26.3108 145.192 26.3889 147.087C26.4652 148.886 27.2151 150.591 28.49 151.863C29.7648 153.134 31.4712 153.88 33.2705 153.952L57.8912 154.925C61.9377 155.082 67.3148 152.627 69.8404 149.461L64.3166 138.006Z" fill="#455A64"/>
<path d="M3.8921 128.164C3.8921 128.164 2.8384 106.52 23.1791 102.012V99.2366H94.4287V105.896C94.4287 105.896 83.9732 118.491 87.3679 128.947C90.7625 139.402 91.8488 140.472 91.8488 140.472H132.4C135.6 135.975 137.383 130.624 137.522 125.107C137.739 115.927 133.926 100.236 131.075 90.2041C128.5 81.0522 126.871 73.4264 126.871 73.4264L139.037 69.3691C139.037 69.3691 161.55 98.8347 162.468 100.464C163.386 102.094 166.515 105.982 165.782 114.445C165.048 122.907 144.794 149.01 139.482 151.954C134.171 154.898 129.369 155.083 124.584 155.816C120.434 156.457 89.736 156.033 81.7029 155.908C78.9113 155.891 76.1746 155.132 73.773 153.709C71.3723 152.253 69.569 149.841 67.5757 145.887L63.3229 137.61L3.8921 128.164Z" fill="#3C8AFF"/>
<path d="M9.34395 126.675L0.371219 140.731C0.104875 141.121 -0.0273587 141.587 -0.00547471 142.058C0.0164093 142.53 0.191209 142.981 0.492501 143.344C0.793793 143.708 1.2052 143.963 1.66447 144.072C2.12374 144.18 2.60591 144.136 3.03806 143.947C4.15464 143.448 5.17493 142.756 6.0525 141.905C10.1532 137.999 17.4585 127.712 17.4585 127.712L9.34395 126.675Z" fill="#455A64"/>
<path d="M73.7013 129.207C73.7013 129.207 73.7013 129.136 73.7556 129L73.9348 128.408C74.1508 127.648 74.3087 126.873 74.4074 126.089C74.708 123.188 74.228 120.259 73.0169 117.605C72.2025 115.774 71.0841 114.094 69.7092 112.635C68.1302 110.97 66.2969 109.566 64.2778 108.475C62.04 107.267 59.6455 106.375 57.1626 105.824C54.4858 105.247 51.7537 104.965 49.0154 104.982C46.2893 105.002 43.5676 105.204 40.8682 105.585C38.2394 105.938 35.7192 106.373 33.3403 106.916C29.1167 107.813 25.0459 109.319 21.2553 111.386C18.7098 112.799 16.3841 114.575 14.352 116.66C13.635 117.399 13.119 118.013 12.7769 118.431L12.3912 118.914C12.35 118.972 12.3027 119.024 12.25 119.072C12.8493 118.185 13.5254 117.352 14.2705 116.584C16.2852 114.46 18.6066 112.649 21.1576 111.212C24.9548 109.108 29.0415 107.574 33.286 106.661C35.6649 106.118 38.1743 105.667 40.8302 105.308C43.5511 104.923 46.2946 104.72 49.0426 104.7C51.7958 104.682 54.5427 104.968 57.2332 105.553C59.7406 106.122 62.1571 107.036 64.4135 108.269C66.461 109.375 68.3184 110.801 69.9156 112.494C71.3004 113.977 72.4226 115.686 73.2342 117.545C74.4403 120.234 74.8946 123.2 74.5486 126.127C74.4344 126.914 74.2527 127.69 74.0055 128.446C73.9186 128.696 73.8534 128.886 73.7991 129.033C73.7716 129.094 73.7389 129.152 73.7013 129.207Z" fill="#263238"/>
<path d="M69.6009 124.362C69.5683 124.362 69.715 124.02 69.8671 123.4C70.0706 122.509 70.0983 121.587 69.9486 120.685C69.7371 119.359 69.2882 118.082 68.6233 116.915C68.247 116.217 67.807 115.555 67.3089 114.938C66.7874 114.267 66.1957 113.653 65.5437 113.108C64.2727 112.061 62.8425 111.225 61.3071 110.631C60.0509 110.138 58.7479 109.774 57.4182 109.545C56.5192 109.393 55.6126 109.29 54.7025 109.235C54.3681 109.231 54.0343 109.205 53.7031 109.159C53.7895 109.146 53.8774 109.146 53.9638 109.159C54.1322 109.159 54.3821 109.159 54.7079 109.159C55.6171 109.173 56.5244 109.247 57.4237 109.382C58.7747 109.576 60.1005 109.916 61.3777 110.398C62.9526 110.991 64.4202 111.836 65.7229 112.901C66.3878 113.461 66.9921 114.089 67.5261 114.775C68.0254 115.41 68.4671 116.088 68.846 116.801C69.5183 117.997 69.957 119.309 70.1386 120.668C70.2736 121.586 70.2163 122.522 69.9703 123.417C69.906 123.658 69.8187 123.893 69.7096 124.117C69.685 124.204 69.6484 124.286 69.6009 124.362Z" fill="#F5F5F5"/>
<g opacity="0.4">
<path d="M55.6445 105.386C59.4795 106.086 63.1303 107.565 66.3716 109.731C69.6307 111.895 72.1406 115.014 73.5574 118.66C74.9805 122.321 74.7686 127.171 73.2696 130.202L78.3045 130.62C79.9991 124.966 78.1578 118.03 74.0843 113.604C71.7534 111.023 68.9093 108.957 65.7341 107.538C62.5588 106.119 59.1223 105.379 55.6445 105.364" fill="black"/>
</g>
<path d="M54.0396 61.1729H9.99612C7.42238 61.1729 5.33594 63.2593 5.33594 65.833V94.5925C5.33594 97.1662 7.42238 99.2527 9.99612 99.2527H54.0396C56.6134 99.2527 58.6998 97.1662 58.6998 94.5925V65.833C58.6998 63.2593 56.6134 61.1729 54.0396 61.1729Z" fill="#455A64"/>
<path d="M58.7014 69.6676C58.7014 69.749 46.7033 69.8088 31.9081 69.8088C17.1129 69.8088 5.10938 69.749 5.10938 69.6676C5.10938 69.5861 17.102 69.5264 31.9081 69.5264C46.7142 69.5264 58.7014 69.5915 58.7014 69.6676Z" fill="#263238"/>
<path d="M94.3953 101.772C94.3953 101.848 78.378 101.913 58.6293 101.913C38.8806 101.913 22.8633 101.848 22.8633 101.772C22.8633 101.696 38.8751 101.631 58.6293 101.631C78.3834 101.631 94.3953 101.696 94.3953 101.772Z" fill="#263238"/>
<path d="M94.4261 99.2525C95.152 98.3326 95.6005 97.2247 95.7188 96.0589C95.8274 94.2719 95.0127 92.0342 93.0845 92.0342H68.4801C66.5657 92.0342 64.7296 92.7947 63.3759 94.1484C62.0222 95.5021 61.2617 97.3381 61.2617 99.2525H94.4261Z" fill="#455A64"/>
<path d="M126.871 73.4245L122.591 64.5007C122.02 63.2756 121.926 61.8815 122.327 60.5908C122.729 59.3002 123.598 58.2057 124.764 57.5213L137.56 49.8901C138.228 49.4887 138.992 49.2765 139.771 49.2764H142.535L143.622 67.3142L139.363 68.9599L142.079 73.3485L126.871 73.4245Z" fill="#3C8AFF"/>
<path d="M142.574 49.9512C142.574 49.9512 146.952 50.956 147.501 57.7018C148.049 64.4477 143.639 66.5551 143.639 66.5551L142.574 49.9512Z" fill="#EBEBEB"/>
<path d="M128.364 61.0046C128.364 61.0046 119.516 65.1977 118.435 65.8929C117.685 66.3709 117.044 67.2073 117.631 68.6792C118.63 71.1831 122.769 68.8259 122.769 68.8259L131.009 64.7089C131.009 64.7089 134.175 63.2152 133.002 61.3414C131.693 59.2448 128.364 61.0046 128.364 61.0046Z" fill="#263238"/>
<path d="M115.833 59.4785C115.833 59.4785 124.149 60.9016 124.855 61.1079C125.561 61.3143 128.331 62.6124 128.472 63.4598C128.545 64.572 128.545 65.6878 128.472 66.8001C128.472 66.8001 127.973 67.2074 127.657 66.3927C127.453 65.5986 127.363 64.7791 127.391 63.9595L125.838 63.362L126.685 64.8665L126.826 68.3969C126.826 68.3969 125.74 68.2992 125.534 67.4519C125.4 66.8673 125.331 66.2699 125.327 65.6704L124.192 64.709L125.04 65.855L125.327 68.3969C125.327 68.3969 124.502 68.6631 124.241 68.0982C124.05 67.3659 123.955 66.6118 123.959 65.855L120.765 64.7416L118.652 65.9202L115.328 64.0735L115.833 59.4785Z" fill="#FFBE9D"/>
<path d="M128.788 47.8978C128.788 51.2653 127.24 53.9919 125.333 53.9919C123.427 53.9919 121.879 51.2761 121.879 47.8978C121.879 44.5194 123.421 41.8037 125.333 41.8037C127.245 41.8037 128.788 44.5194 128.788 47.8978Z" fill="#263238"/>
<path d="M125.895 52.0858L127.796 58.6687C128.143 58.4939 128.419 58.2059 128.58 57.8523C128.741 57.4987 128.777 57.1008 128.681 56.7243C128.203 54.4702 127.931 52.868 127.41 50.8909C127.345 50.6954 125.895 52.0858 125.895 52.0858Z" fill="#263238"/>
<g opacity="0.4">
<path d="M88.3068 131.732C88.1222 131.189 87.9266 130.646 87.7637 130.065C87.6008 129.484 87.3944 128.979 87.2531 128.435C87.0342 127.621 86.8744 126.791 86.7752 125.953C83.5706 138.989 88.4644 148.184 96.8614 148.831C109.136 149.776 124.1 150.46 130.151 148.874C141.182 145.979 145.228 136.778 146.195 135.263C147.162 133.747 155.934 117.708 150.54 102.267C145.147 86.8252 135.794 70.4277 135.794 70.4277L126.87 73.4259C126.87 73.4259 128.5 81.0299 131.09 90.1764C133.942 100.208 137.755 115.9 137.537 125.079C137.399 130.597 135.616 135.947 132.416 140.444H91.8699C91.8699 140.444 91.0008 139.575 88.3231 131.754" fill="black"/>
</g>
<path d="M2.27325 124.785L2.56112 121.689L76.5807 130.217C77.57 130.333 78.525 130.651 79.3872 131.149C80.2494 131.648 81.0006 132.318 81.5947 133.117C82.1887 133.917 82.6132 134.829 82.8419 135.799C83.0706 136.768 83.0987 137.774 82.9247 138.755L82.5934 140.629L6.01008 129.5C4.89931 129.348 3.89027 128.772 3.19387 127.894C2.49747 127.015 2.16761 125.902 2.27325 124.785Z" fill="#3C8AFF"/>
<g opacity="0.6">
<path d="M2.26934 124.784L2.55721 121.688L76.5768 130.216C77.5661 130.332 78.5211 130.65 79.3833 131.148C80.2455 131.647 80.9967 132.317 81.5908 133.116C82.1848 133.916 82.6092 134.828 82.838 135.798C83.0667 136.767 83.0948 137.773 82.9208 138.754L82.5895 140.628L6.00618 129.499C4.8954 129.347 3.88636 128.772 3.18996 127.893C2.49356 127.014 2.1637 125.901 2.26934 124.784Z" fill="black"/>
</g>
<g opacity="0.3">
<path d="M146.195 145.491C146.195 145.491 162.49 127.567 165.852 113.478C167.541 113.468 169.228 113.594 170.897 113.853C170.897 113.853 161.262 140.049 146.195 145.491Z" fill="black"/>
</g>
<path d="M165.611 107.165C165.653 107.312 165.682 107.463 165.698 107.616C165.741 107.915 165.828 108.355 165.882 108.925C166.041 110.553 165.999 112.195 165.757 113.813C165.375 116.203 164.643 118.523 163.585 120.7C162.294 123.35 160.854 125.925 159.272 128.413C156.433 132.952 153.244 137.263 149.735 141.307C148.409 142.877 147.312 144.126 146.552 144.984L145.672 145.967C145.572 146.084 145.465 146.195 145.352 146.299C145.432 146.169 145.525 146.047 145.629 145.935L146.47 144.914L149.583 141.182C153.037 137.108 156.195 132.791 159.033 128.266C160.617 125.787 162.068 123.225 163.378 120.592C164.423 118.436 165.154 116.143 165.551 113.781C165.801 112.186 165.872 110.568 165.763 108.957C165.725 108.387 165.654 107.947 165.633 107.643C165.609 107.485 165.602 107.325 165.611 107.165Z" fill="#263238"/>
<path d="M137.446 145.359C136.513 144.645 135.639 143.857 134.833 143.002C133.964 142.213 133.157 141.358 132.422 140.443C134.226 141.944 135.906 143.588 137.446 145.359Z" fill="#263238"/>
<path d="M89.0859 144.811C89.3482 143.974 89.7544 143.19 90.2863 142.492C90.7393 141.742 91.318 141.075 91.9972 140.521C92.0569 140.58 91.3128 141.471 90.5198 142.65C89.7269 143.828 89.162 144.844 89.0859 144.811Z" fill="#263238"/>
<path d="M57.7756 155.158C58.6667 154.346 59.4173 153.392 59.9971 152.334C60.6052 151.179 60.9747 149.914 61.0834 148.614C61.248 147.028 60.9709 145.428 60.2827 143.99C59.5944 142.552 58.5218 141.333 57.1836 140.466C56.1048 139.733 54.8893 139.225 53.6097 138.973C52.4239 138.759 51.2108 138.742 50.0195 138.924C50.0961 138.891 50.1763 138.867 50.2585 138.853C50.4944 138.792 50.7338 138.744 50.9755 138.712C51.8641 138.593 52.7659 138.615 53.6477 138.777C54.9634 139.01 56.217 139.511 57.3302 140.249C58.7219 141.133 59.8365 142.391 60.5463 143.879C61.2562 145.367 61.5327 147.025 61.3441 148.662C61.2194 149.997 60.82 151.292 60.1709 152.464C59.744 153.253 59.1939 153.968 58.5415 154.583C58.3708 154.752 58.1893 154.91 57.9983 155.055C57.9285 155.099 57.8538 155.133 57.7756 155.158Z" fill="#263238"/>
<path d="M30.7348 149.483C30.5485 148.627 30.4592 147.752 30.4687 146.876C30.375 146.002 30.375 145.121 30.4687 144.247C30.7399 145.978 30.8237 147.734 30.7185 149.483H30.7348Z" fill="#263238"/>
<path d="M32.711 149.488C32.3045 147.767 32.0806 146.009 32.043 144.241C32.2904 145.092 32.4488 145.965 32.5155 146.848C32.6728 147.719 32.7384 148.604 32.711 149.488Z" fill="#263238"/>
<path d="M63.2395 99.2516C63.2395 99.3276 54.2396 99.3928 43.1432 99.3928C32.0468 99.3928 23.0469 99.3276 23.0469 99.2516C23.0469 99.1755 32.0468 99.1104 43.1432 99.1104C54.2396 99.1104 63.2395 99.1701 63.2395 99.2516Z" fill="#263238"/>
<path d="M34.0943 99.2251C34.0129 99.2251 33.9531 88.9054 33.9531 76.2067C33.9531 63.508 33.9912 53.21 34.0943 53.21C34.1975 53.21 34.2356 63.5297 34.2356 76.2338C34.2356 88.938 34.1704 99.2251 34.0943 99.2251Z" fill="#263238"/>
<path d="M28.5603 99.1869C28.4843 99.1869 28.8699 88.8672 29.4239 76.1793C29.9779 63.4915 30.5102 53.1772 30.5645 53.1826C30.6189 53.1881 30.2604 63.5024 29.7064 76.1902C29.1524 88.878 28.6635 99.1923 28.5603 99.1869Z" fill="#263238"/>
<path d="M16.1194 162.002C16.032 161.928 15.952 161.846 15.8804 161.757C15.7392 161.594 15.5057 161.361 15.2504 161.03C14.4996 160.107 13.829 159.122 13.2462 158.086C11.2801 154.654 10.2535 150.764 10.2697 146.809C10.2859 142.853 11.3444 138.972 13.3385 135.556C13.9275 134.523 14.6053 133.544 15.3644 132.629C15.6252 132.297 15.8587 132.085 16.0054 131.901C16.152 131.716 16.2389 131.656 16.2443 131.667C16.1905 131.765 16.1248 131.857 16.0488 131.939C15.9184 132.118 15.6957 132.357 15.4513 132.699C12.6652 136.248 10.9866 140.54 10.6253 145.038C10.264 149.535 11.2361 154.04 13.42 157.988C13.9823 159.026 14.6233 160.019 15.3373 160.959C15.5763 161.301 15.7935 161.546 15.9239 161.725C16.0542 161.904 16.1303 161.991 16.1194 162.002Z" fill="#455A64"/>
<path d="M93.9276 120.619L93.7593 120.934L90.4787 127.077L85.8945 131.487L95.0574 143.686L102.689 142.421C102.689 142.421 101.836 140.677 98.0012 140.341L96.551 133.052L101.934 124.709" fill="#455A64"/>
<path d="M85.9062 131.504L95.0691 143.703L102.7 142.438L101.652 141.433L95.3896 142.117L86.8839 130.564L85.9062 131.504Z" fill="#E0E0E0"/>
<path d="M97.403 137.006C97.3595 137.093 96.8598 136.914 96.3167 137.034C95.7735 137.153 95.3336 137.463 95.263 137.397C95.1924 137.332 95.5346 136.822 96.2515 136.697C96.9685 136.572 97.4627 136.936 97.403 137.006Z" fill="#263238"/>
<path d="M96.9965 135.225C96.9314 135.29 96.5131 134.899 95.9102 134.877C95.3074 134.856 94.824 135.22 94.7751 135.149C94.7262 135.078 94.8131 134.981 95.0086 134.823C95.2729 134.63 95.594 134.531 95.9211 134.541C96.2485 134.549 96.563 134.67 96.8119 134.883C96.9585 135.035 96.9965 135.182 96.9965 135.225Z" fill="#263238"/>
<path d="M96.6396 132.862C96.5636 132.922 96.2268 132.525 95.6674 132.428C95.108 132.33 94.6571 132.585 94.5811 132.504C94.5051 132.422 94.63 132.346 94.8309 132.232C95.0962 132.092 95.4009 132.044 95.6963 132.097C95.9917 132.151 96.2607 132.301 96.4604 132.525C96.645 132.699 96.6776 132.84 96.6396 132.862Z" fill="#263238"/>
<path d="M98.3804 130.715C98.2989 130.759 98.011 130.362 97.4842 130.134C96.9573 129.906 96.4794 129.939 96.4576 129.846C96.4359 129.754 97.0008 129.531 97.6254 129.846C98.25 130.161 98.4727 130.688 98.3804 130.715Z" fill="#263238"/>
<path d="M99.1176 128.983C99.0795 129.01 98.7808 128.75 98.3192 128.293L97.537 127.484C97.3599 127.326 97.2063 127.143 97.0808 126.941C97.0443 126.868 97.0227 126.789 97.0171 126.708C97.0115 126.627 97.0221 126.545 97.0482 126.468C97.0791 126.38 97.1353 126.304 97.2097 126.248C97.2841 126.192 97.3734 126.159 97.4664 126.153C97.7445 126.157 98.015 126.244 98.2431 126.403C98.4421 126.53 98.6245 126.682 98.7863 126.854C99.0562 127.151 99.2549 127.506 99.3674 127.891C99.5105 128.239 99.5105 128.63 99.3674 128.978C99.3122 128.642 99.236 128.31 99.1393 127.984C99.0068 127.649 98.8093 127.345 98.5581 127.088C98.41 126.941 98.2439 126.813 98.0639 126.707C97.8912 126.594 97.6936 126.525 97.4882 126.506C97.4596 126.507 97.4319 126.516 97.4087 126.532C97.3854 126.549 97.3677 126.572 97.3578 126.599C97.3285 126.67 97.3285 126.75 97.3578 126.821C97.4637 126.996 97.5914 127.157 97.738 127.299L98.4821 128.163C98.7364 128.401 98.9509 128.678 99.1176 128.983Z" fill="#263238"/>
<path d="M99.4283 129.163C99.3902 129.163 99.3522 128.761 99.689 128.234C99.9181 127.886 100.253 127.622 100.645 127.48C101.036 127.338 101.463 127.326 101.862 127.446C101.905 127.475 101.942 127.513 101.97 127.557C101.998 127.601 102.017 127.65 102.025 127.702C102.032 127.79 102.013 127.879 101.97 127.957C101.909 128.066 101.83 128.163 101.737 128.245C101.585 128.391 101.422 128.524 101.248 128.641C100.954 128.839 100.632 128.989 100.292 129.087C99.9885 129.21 99.6541 129.234 99.3359 129.157C99.3359 129.103 99.689 129.07 100.216 128.859C100.519 128.738 100.806 128.58 101.069 128.386C101.224 128.272 101.369 128.145 101.503 128.006C101.569 127.948 101.626 127.88 101.671 127.805C101.699 127.729 101.671 127.751 101.671 127.734C101.598 127.703 101.518 127.686 101.438 127.685C101.342 127.677 101.246 127.677 101.15 127.685C100.964 127.702 100.781 127.746 100.607 127.816C100.313 127.93 100.054 128.117 99.8519 128.359C99.6928 128.617 99.5512 128.886 99.4283 129.163Z" fill="#263238"/>
<path d="M91.9562 130.26C91.986 130.44 91.962 130.624 91.8873 130.789C91.8125 130.955 91.6903 131.094 91.5361 131.19C91.3819 131.286 91.2027 131.335 91.0211 131.329C90.8395 131.323 90.6638 131.263 90.5161 131.157C90.3684 131.052 90.2555 130.904 90.1916 130.734C90.1276 130.564 90.1156 130.379 90.1569 130.202C90.1983 130.025 90.2912 129.865 90.4239 129.741C90.5567 129.617 90.7232 129.535 90.9025 129.505C91.1421 129.468 91.3869 129.526 91.5841 129.667C91.7812 129.808 91.9149 130.021 91.9562 130.26Z" fill="#E0E0E0"/>
<path d="M121.738 126.486L124.188 142.389L143.996 139.445C143.594 137.571 132.786 135.296 132.786 135.296L131.634 125.041L121.738 126.486Z" fill="#455A64"/>
<path d="M126.531 135.349C126.349 135.435 126.205 135.585 126.126 135.77C126.048 135.956 126.042 136.164 126.108 136.354C126.188 136.538 126.335 136.685 126.52 136.765C126.704 136.844 126.912 136.851 127.102 136.783C127.298 136.691 127.452 136.527 127.534 136.326C127.616 136.125 127.618 135.9 127.541 135.697C127.439 135.511 127.268 135.373 127.066 135.311C126.863 135.249 126.644 135.269 126.455 135.366" fill="#E0E0E0"/>
<path d="M124.189 142.389L124.004 140.76L143.063 138.538C143.063 138.538 144.002 138.793 143.997 139.429L124.189 142.389Z" fill="#E0E0E0"/>
<path d="M133.089 135.149C133.089 135.246 132.627 135.36 132.193 135.741C131.758 136.121 131.573 136.566 131.476 136.545C131.378 136.523 131.443 135.936 131.97 135.485C132.497 135.035 133.1 135.056 133.089 135.149Z" fill="#263238"/>
<path d="M135.291 135.698C135.329 135.79 134.933 136.013 134.666 136.475C134.4 136.936 134.368 137.376 134.27 137.387C134.172 137.398 134.031 136.844 134.373 136.301C134.715 135.758 135.275 135.606 135.291 135.698Z" fill="#263238"/>
<path d="M136.845 138.005C136.758 138.043 136.552 137.576 136.72 137.011C136.889 136.446 137.312 136.164 137.367 136.24C137.421 136.316 137.182 136.642 137.046 137.109C136.911 137.576 136.938 137.983 136.845 138.005Z" fill="#263238"/>
<path d="M132.568 132.839C132.568 132.931 132.079 132.866 131.536 132.98C130.993 133.094 130.596 133.339 130.531 133.263C130.466 133.187 130.83 132.779 131.465 132.649C132.101 132.519 132.606 132.752 132.568 132.839Z" fill="#263238"/>
<path d="M131.758 130.56C131.446 130.696 131.102 130.745 130.764 130.701C130.397 130.691 130.032 130.636 129.678 130.538C129.461 130.487 129.249 130.419 129.042 130.337C128.921 130.294 128.809 130.23 128.711 130.147C128.636 130.089 128.584 130.008 128.562 129.916C128.54 129.824 128.551 129.727 128.591 129.642C128.63 129.567 128.685 129.502 128.753 129.452C128.821 129.402 128.899 129.369 128.983 129.354C129.107 129.335 129.233 129.335 129.357 129.354C129.578 129.37 129.797 129.411 130.009 129.474C130.366 129.575 130.705 129.731 131.014 129.935C131.557 130.294 131.747 130.631 131.715 130.658C131.682 130.685 131.405 130.424 130.889 130.142C130.586 129.978 130.263 129.856 129.928 129.778C129.732 129.727 129.532 129.696 129.33 129.685C129.113 129.685 128.934 129.685 128.896 129.789C128.858 129.892 128.896 129.838 128.934 129.897C129.008 129.954 129.091 129.999 129.178 130.033C129.364 130.117 129.554 130.192 129.748 130.256C130.079 130.361 130.419 130.436 130.764 130.478C131.097 130.482 131.429 130.509 131.758 130.56Z" fill="#263238"/>
<path d="M131.643 130.717C131.61 130.717 131.366 130.418 131.236 129.799C131.177 129.439 131.177 129.072 131.236 128.712C131.271 128.494 131.325 128.28 131.399 128.071C131.431 127.935 131.498 127.808 131.593 127.705C131.688 127.601 131.808 127.524 131.942 127.479C132.03 127.468 132.12 127.482 132.2 127.52C132.281 127.557 132.35 127.617 132.398 127.691C132.466 127.801 132.519 127.92 132.555 128.044C132.622 128.261 132.655 128.486 132.653 128.712C132.653 129.091 132.56 129.464 132.382 129.799C132.072 130.342 131.686 130.543 131.676 130.51C131.665 130.478 131.942 130.233 132.164 129.695C132.294 129.386 132.353 129.052 132.338 128.718C132.333 128.524 132.298 128.331 132.235 128.147C132.175 127.941 132.072 127.784 131.996 127.816C131.92 127.849 131.752 128.012 131.697 128.191C131.624 128.377 131.567 128.57 131.529 128.767C131.467 129.102 131.453 129.443 131.485 129.782C131.534 130.336 131.692 130.695 131.643 130.717Z" fill="#263238"/>
<path d="M106.152 89.1284L89.168 126.138L100.384 132.873L123.869 88.3408" fill="#263238"/>
<path d="M134.163 133.713L121.98 135.669L114.686 92.1412L78.6482 94.7537C77.6949 94.8199 76.7372 94.73 75.813 94.4876C65.6942 91.7121 67.0629 78.807 68.0406 76.7376L117.907 75.3092C120.519 75.2332 123.068 76.124 125.064 77.8108C127.061 79.4976 128.365 81.8617 128.726 84.4503L134.163 133.713Z" fill="#263238"/>
<path d="M67.5383 78.7818L67.7175 60.3801C67.7175 60.3801 65.344 48.4309 64.6379 43.711C63.5516 36.4111 62.0525 32.9404 74.0125 27.7534L76.6305 26.7432L80.6769 26.7975C85.5 27.1614 90.5839 31.5228 90.7034 34.4015L95.369 75.8814L67.5383 78.7818Z" fill="#3C8AFF"/>
<path d="M68.2862 32.0273C68.2862 32.0273 64.9079 39.2946 65.5705 45.9155L78.1551 57.995C80.9741 61.1344 84.5045 62.4705 89.018 62.7421L115.056 65.5882L115.779 58.7772L91.0222 51.7598C90.0337 51.5751 89.5394 50.5485 88.7845 49.8859L68.2862 32.0273Z" fill="#3C8AFF"/>
<path d="M66.25 34.1231C66.3962 33.9833 66.5652 33.8694 66.7497 33.7864C67.2858 33.5502 67.8527 33.3911 68.4334 33.3138C69.365 33.161 70.3153 33.161 71.2469 33.3138C71.5347 33.366 71.813 33.4613 72.0725 33.5963C72.3378 33.7627 72.5935 33.9441 72.8383 34.1394C73.338 34.5305 73.8431 34.9813 74.3591 35.4701C75.402 36.4423 76.3905 37.6753 77.5474 38.9245C78.7043 40.1737 79.9698 41.5153 81.3494 42.922C82.729 44.3288 84.2118 45.8007 85.7977 47.3215C86.5962 48.0819 87.4272 48.8532 88.2908 49.6081C88.7307 49.9666 89.1652 50.3903 89.5835 50.7868C89.9776 51.1944 90.4751 51.4873 91.0228 51.6341L115.828 58.6406L115.942 58.6732V58.7927C115.893 59.2761 115.834 59.7921 115.779 60.3189C115.589 62.1276 115.399 63.92 115.236 65.6037V65.7449H115.095L104.058 64.5174L98.8441 63.9471L93.8526 63.442C92.2231 63.2628 90.6534 63.0781 89.1272 62.8554C87.6362 62.6724 86.1688 62.3319 84.7495 61.8398C83.4411 61.3416 82.2032 60.6752 81.067 59.8573C79.9807 59.0914 78.9596 58.293 78.0199 57.5055C74.2994 54.3335 71.5674 51.4929 69.6718 49.5593C68.7322 48.587 68.0098 47.8212 67.5264 47.2998L66.9832 46.7023L66.804 46.4905C66.804 46.4905 66.8746 46.5502 67.005 46.6806C67.1353 46.811 67.3254 47.0119 67.5481 47.2618L69.7207 49.4887C71.638 51.3951 74.3917 54.214 78.1177 57.3588C79.0573 58.1355 80.0621 58.9285 81.1538 59.6835C82.2827 60.4845 83.5092 61.138 84.8038 61.6279C86.2135 62.1088 87.6699 62.4401 89.1489 62.6164C90.6752 62.8337 92.2503 63.0184 93.8688 63.1922L98.8603 63.681L104.075 64.2513L115.1 65.4517L114.943 65.5766C115.122 63.8928 115.312 62.1005 115.486 60.2864C115.546 59.7432 115.6 59.2435 115.649 58.7601L115.752 58.9122L90.9848 51.8785C90.3801 51.7283 89.8303 51.41 89.3988 50.9606C88.9588 50.5424 88.5623 50.1513 88.1115 49.7765C87.2371 49.0161 86.4169 48.2394 85.6185 47.479C84.0325 45.9528 82.5552 44.47 81.181 43.0578C79.8069 41.6457 78.5468 40.2987 77.379 39.0331C76.2113 37.7676 75.2553 36.5401 74.2233 35.5679C73.7486 35.097 73.2482 34.6527 72.7243 34.2372C72.4878 34.0384 72.2373 33.8569 71.9747 33.694C71.7287 33.5603 71.4628 33.4667 71.1872 33.417C70.2708 33.2492 69.3329 33.2345 68.4117 33.3736C67.8351 33.4383 67.2703 33.5827 66.7334 33.8027C66.5643 33.897 66.4027 34.0041 66.25 34.1231Z" fill="#263238"/>
<path d="M72.7527 10.7798L74.0128 28.7035C74.1131 30.1127 74.7439 31.4315 75.7781 32.394C76.8122 33.3566 78.1727 33.8913 79.5855 33.8905C80.3495 33.8907 81.1053 33.734 81.8063 33.4303C82.5073 33.1265 83.1386 32.6822 83.6609 32.1247C84.1833 31.5672 84.5857 30.9084 84.8432 30.1892C85.1007 29.4699 85.2079 28.7054 85.1581 27.9431C85.0441 26.2376 84.9463 24.8417 84.9463 24.8417C84.9463 24.8417 89.2915 24.1682 89.3349 19.8285C89.3675 17.3246 88.933 11.6434 88.5636 7.28734C88.4423 5.86442 87.79 4.53926 86.7364 3.57522C85.6828 2.61119 84.305 2.07885 82.8769 2.08402H80.2536C79.1852 2.1489 78.1407 2.42705 77.1815 2.90206C76.2224 3.37708 75.3681 4.03934 74.669 4.8498C73.9699 5.66026 73.4402 6.6025 73.1111 7.62095C72.782 8.63941 72.6601 9.71346 72.7527 10.7798Z" fill="#FFBE9D"/>
<path d="M84.9471 24.7702C82.9453 24.8079 80.9774 24.2503 79.293 23.168C79.293 23.168 80.6291 26.2856 84.958 25.8837L84.9471 24.7702Z" fill="#EB996E"/>
<path d="M87.59 12.854C87.5915 13.0155 87.5299 13.1711 87.4183 13.2878C87.3066 13.4045 87.1539 13.473 86.9925 13.4786C86.9146 13.4861 86.8359 13.4778 86.7612 13.4544C86.6865 13.431 86.6173 13.3928 86.5575 13.3422C86.4978 13.2916 86.4488 13.2295 86.4134 13.1597C86.3781 13.0898 86.357 13.0136 86.3516 12.9355C86.35 12.7735 86.4115 12.6172 86.5229 12.4997C86.6344 12.3821 86.7872 12.3125 86.9491 12.3054C87.1067 12.2934 87.2627 12.3444 87.3829 12.4473C87.503 12.5501 87.5775 12.6964 87.59 12.854Z" fill="#263238"/>
<path d="M87.8187 11.6323C87.7372 11.7138 87.2755 11.3662 86.602 11.3662C85.9285 11.3662 85.4506 11.7029 85.3745 11.6214C85.2985 11.54 85.418 11.4368 85.6352 11.2847C85.9213 11.0836 86.2632 10.9773 86.6129 10.9805C86.9605 10.9797 87.2993 11.0901 87.5797 11.2956C87.7644 11.4476 87.8513 11.5943 87.8187 11.6323Z" fill="#263238"/>
<path d="M81.3321 12.854C81.3351 13.0159 81.2739 13.1723 81.162 13.2893C81.0501 13.4063 80.8965 13.4744 80.7347 13.4786C80.6567 13.4861 80.5781 13.4778 80.5034 13.4544C80.4287 13.431 80.3594 13.3928 80.2997 13.3422C80.24 13.2916 80.191 13.2295 80.1556 13.1597C80.1203 13.0898 80.0992 13.0136 80.0938 12.9355C80.0922 12.7735 80.1536 12.6172 80.2651 12.4997C80.3766 12.3821 80.5294 12.3125 80.6912 12.3054C80.8489 12.2934 81.0049 12.3444 81.1251 12.4473C81.2452 12.5501 81.3197 12.6964 81.3321 12.854Z" fill="#263238"/>
<path d="M81.2453 11.7573C81.1693 11.8388 80.7022 11.4912 80.0287 11.4912C79.3552 11.4912 78.8772 11.8279 78.8066 11.7465C78.736 11.665 78.8446 11.5618 79.0619 11.4097C79.348 11.2086 79.6899 11.1023 80.0395 11.1055C80.3865 11.1032 80.7252 11.2116 81.0063 11.4151C81.2453 11.5727 81.305 11.7193 81.2453 11.7573Z" fill="#263238"/>
<path d="M83.6846 16.6984C84.0371 16.5883 84.4021 16.5226 84.7709 16.5029C84.9392 16.5029 85.1022 16.4485 85.1293 16.3345C85.1473 16.1582 85.1072 15.9808 85.0153 15.8294L84.5047 14.5367C84.0364 13.4396 83.6586 12.3061 83.375 11.1475C83.9264 12.2049 84.3949 13.3035 84.7763 14.4335L85.2543 15.737C85.3629 15.9419 85.3956 16.1785 85.3466 16.4051C85.3217 16.4655 85.2832 16.5194 85.2343 16.5627C85.1854 16.606 85.1272 16.6375 85.0642 16.6549C84.9701 16.6792 84.8734 16.692 84.7763 16.693C84.4141 16.7407 84.0473 16.7425 83.6846 16.6984Z" fill="#263238"/>
<path d="M81.7254 17.1612C81.8341 17.1612 81.8341 17.8782 82.4533 18.3887C83.0724 18.8993 83.8437 18.8233 83.8491 18.9319C83.8546 19.0405 83.6753 19.0677 83.3494 19.0785C82.9262 19.0834 82.5147 18.9392 82.1871 18.6712C81.8798 18.4101 81.6852 18.0403 81.644 17.6392C81.5951 17.3622 81.6766 17.1558 81.7254 17.1612Z" fill="#263238"/>
<path d="M81.4366 9.14471C81.3714 9.32395 80.7088 9.24248 79.9266 9.33481C79.1445 9.42715 78.509 9.64441 78.4058 9.48147C78.3026 9.31852 78.471 9.23162 78.7263 9.05781C79.0658 8.84131 79.4505 8.7057 79.8507 8.66144C80.251 8.61718 80.656 8.66545 81.0346 8.80254C81.3225 8.9166 81.4692 9.05781 81.4366 9.14471Z" fill="#263238"/>
<path d="M87.5659 9.7042C87.4518 9.85628 86.9901 9.7042 86.4416 9.7042C85.893 9.7042 85.4205 9.80197 85.3118 9.64446C85.2032 9.48694 85.339 9.41634 85.5454 9.27512C85.8172 9.09687 86.1386 9.00939 86.4633 9.02527C86.7862 9.03205 87.0992 9.13827 87.3595 9.32944C87.555 9.47609 87.6202 9.62816 87.5659 9.7042Z" fill="#263238"/>
<path d="M74.2107 14.0385C74.1347 14.0059 71.2289 13.1531 71.3266 16.1187C71.4244 19.0843 74.3737 18.3782 74.3791 18.2913C74.3845 18.2044 74.2107 14.0385 74.2107 14.0385Z" fill="#FFBE9D"/>
<path d="M73.4366 17.199C73.4366 17.199 73.3877 17.2371 73.3008 17.2805C73.1766 17.3277 73.0394 17.3277 72.9152 17.2805C72.7209 17.1652 72.5606 17.0003 72.4509 16.8028C72.3412 16.6053 72.2858 16.3821 72.2906 16.1562C72.2748 15.9024 72.3156 15.6482 72.4101 15.4121C72.4347 15.3182 72.4816 15.2317 72.5469 15.1598C72.6121 15.0879 72.6937 15.0329 72.7848 14.9993C72.8442 14.9826 72.9075 14.987 72.9639 15.0117C73.0204 15.0365 73.0665 15.0801 73.0944 15.1351C73.1379 15.2166 73.1216 15.2763 73.1379 15.2818C73.1542 15.2872 73.1976 15.2274 73.1705 15.1079C73.1523 15.0334 73.1079 14.9679 73.0455 14.9233C73.0042 14.894 72.9575 14.8732 72.9081 14.8621C72.8587 14.8509 72.8076 14.8495 72.7577 14.8581C72.6329 14.8825 72.5168 14.9396 72.4214 15.0235C72.3259 15.1075 72.2545 15.2154 72.2145 15.3361C72.0956 15.5961 72.0433 15.8817 72.0624 16.1671C72.055 16.4313 72.1265 16.6918 72.2678 16.9152C72.409 17.1387 72.6136 17.315 72.8554 17.4217C72.9352 17.4428 73.0187 17.4455 73.0996 17.4295C73.1806 17.4135 73.2568 17.3793 73.3225 17.3294C73.4366 17.2697 73.4475 17.2045 73.4366 17.199Z" fill="#EB996E"/>
<path d="M72.5553 13.9351C72.8374 13.9168 73.1192 13.9753 73.3708 14.1044C73.6223 14.2335 73.8341 14.4284 73.9837 14.6683C74.1738 15.092 74.2173 15.5699 74.4074 15.9936C74.4895 16.2113 74.6394 16.3969 74.835 16.5231C75.0305 16.6492 75.2614 16.7092 75.4937 16.6942C75.6477 16.646 75.7862 16.5577 75.895 16.4384C76.0037 16.3191 76.0789 16.1731 76.1128 16.0153C76.1753 15.6997 76.1753 15.375 76.1128 15.0594C75.939 13.6744 75.6512 12.3056 75.5969 10.9098C75.4808 9.50929 75.7853 8.10606 76.4713 6.87963C76.8192 6.27211 77.3249 5.77007 77.935 5.42678C78.5451 5.08348 79.2368 4.91173 79.9366 4.92975C80.8599 5.00579 81.7018 5.47289 82.6197 5.6141C83.1646 5.68544 83.7186 5.63205 84.2399 5.45799C84.7611 5.28392 85.236 4.99373 85.6287 4.60929C85.802 4.46342 85.9833 4.32742 86.1719 4.20193C86.1601 3.87405 86.0525 3.55681 85.8623 3.28945C84.0428 1.6057 80.773 1.11688 78.3723 1.74149C77.153 2.04197 76.0137 2.60425 75.0336 3.3893C74.0535 4.17435 73.256 5.16335 72.6965 6.2876C71.6645 8.53622 71.9687 11.6593 72.539 13.9351" fill="#263238"/>
<path d="M88.6111 6.61349C88.6111 6.61349 77.2377 2.9527 72.3168 12.7945C71.9371 11.5567 71.6895 10.2823 71.5781 8.99246C71.5781 8.11256 72.1213 2.86036 77.5092 1.20921C77.5092 1.23093 85.651 -1.87584 88.6111 6.61349Z" fill="#3C8AFF"/>
<path d="M78.8327 6.85739C79.0348 7.184 79.31 7.45915 79.6366 7.66111C79.9633 7.86307 80.3324 7.9863 80.7149 8.02107C81.0973 8.05584 81.4826 8.00119 81.8403 7.86145C82.198 7.7217 82.5184 7.50069 82.776 7.21587C82.8882 7.49871 83.0863 7.73925 83.3424 7.90368C83.5984 8.06812 83.8996 8.14817 84.2035 8.13258C84.5074 8.117 84.7987 8.00656 85.0366 7.81679C85.2745 7.62703 85.447 7.36749 85.5297 7.07465C85.8333 7.41509 86.2029 7.69041 86.616 7.88393C86.8288 7.97444 87.0643 7.99744 87.2906 7.94985C87.5169 7.90225 87.7232 7.78635 87.8815 7.61779C88.0111 7.42106 88.0733 7.18754 88.0586 6.95241C88.0439 6.71728 87.9531 6.49331 87.8 6.31425C87.4921 5.9576 87.0946 5.68949 86.6486 5.53755C85.3009 4.9453 83.8205 4.72042 82.3577 4.88578C80.8875 5.0624 79.5407 5.79508 78.5938 6.93343" fill="#263238"/>
<g opacity="0.4">
<path d="M88.6111 6.61237C87.6627 5.62006 86.3654 5.03569 84.9938 4.98293C81.6371 4.83629 75.3584 6.72099 72.3168 12.8042C71.9371 11.5665 71.6895 10.292 71.5781 9.0022C71.5781 8.1223 72.1213 2.8701 77.5092 1.21894C77.5092 1.22981 85.651 -1.87697 88.6111 6.61237Z" fill="black"/>
</g>
<path d="M72.7891 11.6426C74.5137 9.07418 76.7743 6.90989 79.4154 5.29869C82.0334 3.66926 86.3568 2.03984 89.3332 1.25771C90.2162 0.96587 91.1517 0.867688 92.0761 0.969844C92.5366 1.02814 92.9714 1.21495 93.3306 1.50889C93.6899 1.80283 93.9591 2.19201 94.1075 2.63186C94.3899 3.75617 92.3965 5.4888 91.4569 6.16773C90.5399 6.78089 89.5898 7.343 88.6108 7.85147C88.6108 7.85147 88.638 5.7658 85.3031 5.33672C80.7678 4.75555 72.7891 11.6426 72.7891 11.6426Z" fill="#3C8AFF"/>
<g opacity="0.3">
<path d="M68.7852 48.6025C69.9583 51.4323 71.1424 54.9247 72.8424 57.4721C74.5425 60.0194 76.8128 62.2843 79.6372 63.4467C83.1893 64.9349 87.3878 65.1739 90.9183 63.6531C91.2061 63.5281 91.771 63.3706 91.7167 63.061C91.7167 63.061 90.5489 62.9252 90.185 62.8655C83.0535 61.6814 82.2768 60.8124 78.8605 58.0967C76.7313 56.4184 72.0114 51.3291 68.7852 48.6025Z" fill="black"/>
</g>
<path d="M91.4653 69.21C91.3931 69.4422 91.2928 69.6647 91.1666 69.8726C90.8498 70.4602 90.4632 71.0073 90.0151 71.502C88.5039 73.0865 86.6027 74.2459 84.5022 74.8641C82.4089 75.4601 80.2474 75.7833 78.0714 75.8255C77.2404 75.8581 76.5669 75.8635 76.1052 75.8635C75.8639 75.8734 75.6222 75.8625 75.3828 75.8309C75.6179 75.7766 75.8585 75.7493 76.0998 75.7494L78.0605 75.6245C80.2131 75.5252 82.3472 75.1789 84.4207 74.5925C86.4851 73.9784 88.3633 72.8582 89.8848 71.3337C90.4778 70.6776 91.0071 69.9664 91.4653 69.21Z" fill="#263238"/>
<path d="M122.193 136.968C122.17 136.915 122.155 136.858 122.15 136.8C122.15 136.675 122.096 136.507 122.052 136.3C121.971 135.844 121.851 135.214 121.704 134.377C121.406 132.683 120.988 130.266 120.466 127.284C119.45 121.277 118.049 113.005 116.501 103.869C115.811 99.7303 115.154 95.7763 114.551 92.1644L114.692 92.2784L99.0988 93.4027L94.6233 93.7069L93.4284 93.7775H93.1242H93.0156H93.1188L93.4284 93.7395L94.6179 93.6308L99.088 93.2506L114.671 92.0068H114.79V92.1263C115.399 95.7382 116.067 99.6923 116.762 103.826C118.277 112.967 119.646 121.244 120.645 127.257C121.123 130.244 121.514 132.688 121.791 134.361L122.085 136.3C122.117 136.507 122.139 136.675 122.155 136.8C122.175 136.854 122.188 136.911 122.193 136.968Z" fill="#455A64"/>
<path d="M118.339 88.2637C118.388 88.3288 117.438 89.1436 116.362 90.2407C115.287 91.3379 114.483 92.2992 114.418 92.2449C115.419 90.648 116.758 89.2892 118.339 88.2637Z" fill="#455A64"/>
<path d="M85.0468 28.3182C85.0468 28.3182 85.0794 28.3779 85.112 28.4974C85.166 28.6742 85.2006 28.8563 85.2152 29.0405C85.2787 29.7108 85.1895 30.3867 84.9545 31.0176C84.6035 31.9604 83.9795 32.7773 83.1621 33.364C82.1418 34.0626 80.9136 34.3922 79.6806 34.2982C78.4526 34.2147 77.2761 33.7728 76.2968 33.0272C75.5074 32.4207 74.8527 31.6569 74.3741 30.784C74.0496 30.2027 73.8013 29.5821 73.6354 28.9373C73.5811 28.7092 73.5431 28.53 73.5268 28.3942C73.5105 28.2584 73.5268 28.2041 73.5268 28.2041C73.7786 29.0608 74.1228 29.8876 74.5533 30.67C75.0448 31.4981 75.6922 32.223 76.4597 32.8045C77.4089 33.5073 78.5402 33.9221 79.7186 33.9994C80.8901 34.0893 82.0581 33.7853 83.0372 33.1358C83.819 32.5831 84.426 31.8178 84.7861 30.9307C85.0324 30.33 85.149 29.684 85.1283 29.0351C85.0903 28.5789 85.0468 28.329 85.0468 28.3182Z" fill="#263238"/>
<path d="M92.7104 52.0373C92.6485 51.8618 92.6084 51.6794 92.5909 51.4942C92.5312 51.0651 92.4605 50.5437 92.3736 49.9408C92.1944 48.5558 91.9609 46.7743 91.7056 44.8027C91.4503 42.831 91.2656 41.0006 91.1624 39.6537C91.1027 38.9964 91.0647 38.4587 91.0429 38.0894C91.0169 37.8984 91.0169 37.7047 91.0429 37.5137C91.0997 37.6903 91.1379 37.8723 91.157 38.0568C91.2167 38.4859 91.2874 39.0019 91.3688 39.6102C91.5426 40.9952 91.7653 42.7767 92.0097 44.7483C92.2541 46.72 92.466 48.5504 92.5963 49.8919C92.6561 50.5546 92.6995 51.0868 92.7267 51.4616C92.7438 51.6535 92.7383 51.8467 92.7104 52.0373Z" fill="#263238"/>
</svg>
