<svg width="15" height="14" viewBox="0 0 15 14" fill="none" xmlns="http://www.w3.org/2000/svg">
<path fill-rule="evenodd" clip-rule="evenodd" d="M6.17075 0.375977H12.7948C13.1462 0.375977 13.4832 0.515555 13.7316 0.764007C13.9801 1.01246 14.1197 1.34943 14.1197 1.7008V8.32489C14.1197 8.67625 13.9801 9.01322 13.7316 9.26168C13.4832 9.51013 13.1462 9.64971 12.7948 9.64971H11.47V4.35043C11.47 3.99907 11.3304 3.6621 11.082 3.41364C10.8335 3.16519 10.4966 3.02561 10.1452 3.02561H4.84593V1.7008C4.84593 1.34943 4.98551 1.01246 5.23396 0.764007C5.48241 0.515555 5.81939 0.375977 6.17075 0.375977ZM2.19591 4.35052H8.82C9.55064 4.35052 10.1448 4.9447 10.1448 5.67534V12.2994C10.1448 13.0301 9.55064 13.6242 8.82 13.6242H2.19591C1.46527 13.6242 0.871094 13.0301 0.871094 12.2994V5.67534C0.871094 4.9447 1.46527 4.35052 2.19591 4.35052Z" fill="#3C8AFF"/>
</svg>
