<svg width="26" height="31" viewBox="0 0 26 31" fill="none" xmlns="http://www.w3.org/2000/svg">
<mask id="path-1-outside-1_1575_13439" maskUnits="userSpaceOnUse" x="0" y="0" width="26" height="31" fill="black">
<rect fill="white" width="26" height="31"/>
<path d="M8.44193 14.3008C7.03213 14.3008 5.68007 13.717 4.68319 12.6776C3.68631 11.6383 3.12626 10.2287 3.12626 8.75882V4.32521C3.12626 4.03124 3.23827 3.74932 3.43765 3.54145C3.63703 3.33359 3.90744 3.21681 4.1894 3.21681H5.25253C5.53449 3.21681 5.8049 3.10003 6.00428 2.89216C6.20365 2.6843 6.31566 2.40237 6.31566 2.1084C6.31566 1.81444 6.20365 1.53251 6.00428 1.32464C5.8049 1.11678 5.53449 1 5.25253 1H4.1894C3.34352 1 2.53228 1.35033 1.93415 1.97393C1.33602 2.59753 1 3.44331 1 4.32521V8.75882C1.00137 10.011 1.29425 11.2442 1.85348 12.3524C2.41272 13.4605 3.2216 14.4106 4.21066 15.1211C5.16092 15.9945 5.93156 17.0597 6.47607 18.2522C7.02058 19.4448 7.32767 20.74 7.37879 22.0597C7.37879 24.1174 8.16285 26.0909 9.55849 27.546C10.9541 29.001 12.847 29.8185 14.8207 29.8185C16.7944 29.8185 18.6873 29.001 20.083 27.546C21.4786 26.0909 22.2626 24.1174 22.2626 22.0597V20.7961C23.2648 20.5263 24.1382 19.8847 24.7191 18.9916C25.3 18.0985 25.5486 17.0151 25.4182 15.9446C25.2877 14.8741 24.7873 13.8899 24.0107 13.1766C23.2341 12.4632 22.2346 12.0696 21.1995 12.0696C20.1645 12.0696 19.165 12.4632 18.3883 13.1766C17.6117 13.8899 17.1113 14.8741 16.9809 15.9446C16.8505 17.0151 17.099 18.0985 17.6799 18.9916C18.2608 19.8847 19.1342 20.5263 20.1364 20.7961V22.0597C20.1364 23.5295 19.5763 24.9391 18.5795 25.9785C17.5826 27.0178 16.2305 27.6017 14.8207 27.6017C13.4109 27.6017 12.0589 27.0178 11.062 25.9785C10.0651 24.9391 9.50506 23.5295 9.50506 22.0597C9.55888 20.7383 9.86928 19.4421 10.4175 18.2495C10.9657 17.0568 11.7403 15.9926 12.6945 15.1211C13.6796 14.4082 14.4843 13.457 15.0398 12.349C15.5952 11.2409 15.8849 10.0091 15.8839 8.75882V4.32521C15.8839 3.44331 15.5478 2.59753 14.9497 1.97393C14.3516 1.35033 13.5403 1 12.6945 1H11.6313C11.3494 1 11.079 1.11678 10.8796 1.32464C10.6802 1.53251 10.5682 1.81444 10.5682 2.1084C10.5682 2.40237 10.6802 2.6843 10.8796 2.89216C11.079 3.10003 11.3494 3.21681 11.6313 3.21681H12.6945C12.9764 3.21681 13.2468 3.33359 13.4462 3.54145C13.6456 3.74932 13.7576 4.03124 13.7576 4.32521V8.75882C13.7576 9.48661 13.6201 10.2073 13.353 10.8797C13.0858 11.5521 12.6943 12.163 12.2007 12.6776C11.7071 13.1922 11.1211 13.6005 10.4761 13.879C9.83122 14.1575 9.13999 14.3008 8.44193 14.3008ZM21.1995 18.7345C20.6356 18.7345 20.0948 18.5009 19.696 18.0852C19.2973 17.6694 19.0733 17.1056 19.0733 16.5176C19.0733 15.9297 19.2973 15.3659 19.696 14.9501C20.0948 14.5344 20.6356 14.3008 21.1995 14.3008C21.7634 14.3008 22.3043 14.5344 22.703 14.9501C23.1018 15.3659 23.3258 15.9297 23.3258 16.5176C23.3258 17.1056 23.1018 17.6694 22.703 18.0852C22.3043 18.5009 21.7634 18.7345 21.1995 18.7345Z"/>
</mask>
<path d="M8.44193 14.3008C7.03213 14.3008 5.68007 13.717 4.68319 12.6776C3.68631 11.6383 3.12626 10.2287 3.12626 8.75882V4.32521C3.12626 4.03124 3.23827 3.74932 3.43765 3.54145C3.63703 3.33359 3.90744 3.21681 4.1894 3.21681H5.25253C5.53449 3.21681 5.8049 3.10003 6.00428 2.89216C6.20365 2.6843 6.31566 2.40237 6.31566 2.1084C6.31566 1.81444 6.20365 1.53251 6.00428 1.32464C5.8049 1.11678 5.53449 1 5.25253 1H4.1894C3.34352 1 2.53228 1.35033 1.93415 1.97393C1.33602 2.59753 1 3.44331 1 4.32521V8.75882C1.00137 10.011 1.29425 11.2442 1.85348 12.3524C2.41272 13.4605 3.2216 14.4106 4.21066 15.1211C5.16092 15.9945 5.93156 17.0597 6.47607 18.2522C7.02058 19.4448 7.32767 20.74 7.37879 22.0597C7.37879 24.1174 8.16285 26.0909 9.55849 27.546C10.9541 29.001 12.847 29.8185 14.8207 29.8185C16.7944 29.8185 18.6873 29.001 20.083 27.546C21.4786 26.0909 22.2626 24.1174 22.2626 22.0597V20.7961C23.2648 20.5263 24.1382 19.8847 24.7191 18.9916C25.3 18.0985 25.5486 17.0151 25.4182 15.9446C25.2877 14.8741 24.7873 13.8899 24.0107 13.1766C23.2341 12.4632 22.2346 12.0696 21.1995 12.0696C20.1645 12.0696 19.165 12.4632 18.3883 13.1766C17.6117 13.8899 17.1113 14.8741 16.9809 15.9446C16.8505 17.0151 17.099 18.0985 17.6799 18.9916C18.2608 19.8847 19.1342 20.5263 20.1364 20.7961V22.0597C20.1364 23.5295 19.5763 24.9391 18.5795 25.9785C17.5826 27.0178 16.2305 27.6017 14.8207 27.6017C13.4109 27.6017 12.0589 27.0178 11.062 25.9785C10.0651 24.9391 9.50506 23.5295 9.50506 22.0597C9.55888 20.7383 9.86928 19.4421 10.4175 18.2495C10.9657 17.0568 11.7403 15.9926 12.6945 15.1211C13.6796 14.4082 14.4843 13.457 15.0398 12.349C15.5952 11.2409 15.8849 10.0091 15.8839 8.75882V4.32521C15.8839 3.44331 15.5478 2.59753 14.9497 1.97393C14.3516 1.35033 13.5403 1 12.6945 1H11.6313C11.3494 1 11.079 1.11678 10.8796 1.32464C10.6802 1.53251 10.5682 1.81444 10.5682 2.1084C10.5682 2.40237 10.6802 2.6843 10.8796 2.89216C11.079 3.10003 11.3494 3.21681 11.6313 3.21681H12.6945C12.9764 3.21681 13.2468 3.33359 13.4462 3.54145C13.6456 3.74932 13.7576 4.03124 13.7576 4.32521V8.75882C13.7576 9.48661 13.6201 10.2073 13.353 10.8797C13.0858 11.5521 12.6943 12.163 12.2007 12.6776C11.7071 13.1922 11.1211 13.6005 10.4761 13.879C9.83122 14.1575 9.13999 14.3008 8.44193 14.3008ZM21.1995 18.7345C20.6356 18.7345 20.0948 18.5009 19.696 18.0852C19.2973 17.6694 19.0733 17.1056 19.0733 16.5176C19.0733 15.9297 19.2973 15.3659 19.696 14.9501C20.0948 14.5344 20.6356 14.3008 21.1995 14.3008C21.7634 14.3008 22.3043 14.5344 22.703 14.9501C23.1018 15.3659 23.3258 15.9297 23.3258 16.5176C23.3258 17.1056 23.1018 17.6694 22.703 18.0852C22.3043 18.5009 21.7634 18.7345 21.1995 18.7345Z" fill="#3C8AFF"/>
<path d="M4.1894 3.21681V3.65345V3.21681ZM5.25253 3.21681V3.65345V3.21681ZM5.25253 1V0.563356V1ZM4.1894 1L4.1894 0.563356L4.1894 1ZM1 4.32521H0.563356H1ZM1 8.75882H0.563356L0.563356 8.7593L1 8.75882ZM4.21066 15.1211L4.50615 14.7996L4.48677 14.7818L4.46539 14.7664L4.21066 15.1211ZM7.37879 22.0597H7.81544V22.0512L7.81511 22.0428L7.37879 22.0597ZM14.8207 29.8185V30.2551V29.8185ZM22.2626 20.7961L22.1491 20.3745L21.826 20.4614V20.7961H22.2626ZM21.1995 12.0696V11.633V12.0696ZM20.1364 20.7961H20.573V20.4614L20.2499 20.3745L20.1364 20.7961ZM9.50506 22.0597L9.06878 22.0419L9.06842 22.0508V22.0597H9.50506ZM12.6945 15.1211L12.4385 14.7673L12.4183 14.7819L12.4 14.7987L12.6945 15.1211ZM15.8839 8.75882H15.4472L15.4472 8.75918L15.8839 8.75882ZM15.8839 4.32521H16.3205H15.8839ZM11.6313 1V0.563356V1ZM11.6313 3.21681V3.65345V3.21681ZM21.1995 14.3008V14.7375V14.3008ZM8.44193 13.8642C7.15395 13.8642 5.91484 13.3309 4.99831 12.3754L4.36806 12.9799C5.44529 14.103 6.91031 14.7375 8.44193 14.7375V13.8642ZM4.99831 12.3754C4.08118 11.4192 3.56291 10.1186 3.56291 8.75882H2.68962C2.68962 10.3387 3.29143 11.8574 4.36806 12.9799L4.99831 12.3754ZM3.56291 8.75882V4.32521H2.68962V8.75882H3.56291ZM3.56291 4.32521C3.56291 4.14131 3.63315 3.96842 3.75277 3.8437L3.12253 3.2392C2.8434 3.53022 2.68962 3.92118 2.68962 4.32521H3.56291ZM3.75277 3.8437C3.8718 3.71961 4.02926 3.65345 4.1894 3.65345L4.1894 2.78016C3.78562 2.78016 3.40225 2.94756 3.12253 3.2392L3.75277 3.8437ZM4.1894 3.65345H5.25253V2.78016H4.1894V3.65345ZM5.25253 3.65345C5.65631 3.65345 6.03968 3.48605 6.3194 3.19441L5.68916 2.58991C5.57013 2.71401 5.41267 2.78016 5.25253 2.78016V3.65345ZM6.3194 3.19441C6.59853 2.9034 6.75231 2.51244 6.75231 2.1084H5.87902C5.87902 2.2923 5.80878 2.4652 5.68916 2.58991L6.3194 3.19441ZM6.75231 2.1084C6.75231 1.70437 6.59853 1.31341 6.3194 1.02239L5.68916 1.6269C5.80878 1.75161 5.87902 1.9245 5.87902 2.1084H6.75231ZM6.3194 1.02239C6.03968 0.730757 5.65631 0.563356 5.25253 0.563356V1.43664C5.41267 1.43664 5.57013 1.5028 5.68916 1.6269L6.3194 1.02239ZM5.25253 0.563356H4.1894V1.43664H5.25253V0.563356ZM4.1894 0.563356C3.2217 0.563356 2.29751 0.964312 1.61903 1.67168L2.24927 2.27618C2.76705 1.73636 3.46534 1.43664 4.1894 1.43664L4.1894 0.563356ZM1.61903 1.67168C0.941148 2.37843 0.563356 3.33324 0.563356 4.32521L1.43664 4.32521C1.43664 3.55338 1.7309 2.81663 2.24927 2.27618L1.61903 1.67168ZM0.563356 4.32521V8.75882H1.43664V4.32521H0.563356ZM0.563356 8.7593C0.564797 10.0791 0.873433 11.3795 1.46366 12.5491L2.2433 12.1556C1.71506 11.1089 1.43794 9.943 1.43664 8.75835L0.563356 8.7593ZM1.46366 12.5491C2.05393 13.7187 2.90865 14.7235 3.95593 15.4757L4.46539 14.7664C3.53455 14.0978 2.77151 13.2023 2.2433 12.1556L1.46366 12.5491ZM3.91517 15.4425C4.82183 16.2759 5.55818 17.2932 6.07887 18.4336L6.87327 18.0708C6.30494 16.8261 5.50001 15.7131 4.50615 14.7996L3.91517 15.4425ZM6.07887 18.4336C6.59958 19.574 6.89354 20.8133 6.94248 22.0766L7.81511 22.0428C7.7618 20.6667 7.44159 19.3155 6.87327 18.0708L6.07887 18.4336ZM6.94215 22.0597C6.94215 24.2275 7.76798 26.31 9.24336 27.8482L9.87361 27.2437C8.55773 25.8718 7.81544 24.0074 7.81544 22.0597H6.94215ZM9.24336 27.8482C10.7193 29.3871 12.7252 30.2551 14.8207 30.2551V29.3818C12.9688 29.3818 11.1889 28.615 9.87361 27.2437L9.24336 27.8482ZM14.8207 30.2551C16.9163 30.2551 18.9221 29.3871 20.3981 27.8482L19.7678 27.2437C18.4526 28.615 16.6726 29.3818 14.8207 29.3818V30.2551ZM20.3981 27.8482C21.8735 26.31 22.6993 24.2275 22.6993 22.0597H21.826C21.826 24.0074 21.0837 25.8718 19.7678 27.2437L20.3981 27.8482ZM22.6993 22.0597V20.7961H21.826V22.0597H22.6993ZM22.3762 21.2177C23.4852 20.9192 24.4473 20.2104 25.0852 19.2297L24.3531 18.7535C23.8291 19.5591 23.0444 20.1335 22.1491 20.3745L22.3762 21.2177ZM25.0852 19.2297C25.7228 18.2494 25.9943 17.0628 25.8516 15.8918L24.9847 15.9974C25.1029 16.9674 24.8773 17.9476 24.3531 18.7535L25.0852 19.2297ZM25.8516 15.8918C25.7089 14.7207 25.1611 13.6404 24.3061 12.855L23.7153 13.4981C24.4135 14.1395 24.8666 15.0275 24.9847 15.9974L25.8516 15.8918ZM24.3061 12.855C23.4505 12.0692 22.3462 11.633 21.1995 11.633V12.5063C22.1229 12.5063 23.0176 12.8572 23.7153 13.4981L24.3061 12.855ZM21.1995 11.633C20.0528 11.633 18.9485 12.0692 18.093 12.855L18.6837 13.4981C19.3815 12.8572 20.2761 12.5063 21.1995 12.5063V11.633ZM18.093 12.855C17.2379 13.6404 16.6901 14.7207 16.5474 15.8918L17.4143 15.9974C17.5325 15.0275 17.9855 14.1395 18.6837 13.4981L18.093 12.855ZM16.5474 15.8918C16.4048 17.0628 16.6763 18.2494 17.3139 19.2297L18.0459 18.7535C17.5217 17.9476 17.2961 16.9674 17.4143 15.9974L16.5474 15.8918ZM17.3139 19.2297C17.9517 20.2104 18.9138 20.9192 20.0229 21.2177L20.2499 20.3745C19.3546 20.1335 18.5699 19.5591 18.0459 18.7535L17.3139 19.2297ZM19.6997 20.7961V22.0597H20.573V20.7961H19.6997ZM19.6997 22.0597C19.6997 23.4194 19.1815 24.72 18.2643 25.6762L18.8946 26.2807C19.9712 25.1582 20.573 23.6396 20.573 22.0597H19.6997ZM18.2643 25.6762C17.3478 26.6318 16.1087 27.165 14.8207 27.165V28.0383C16.3523 28.0383 17.8174 27.4038 18.8946 26.2807L18.2643 25.6762ZM14.8207 27.165C13.5327 27.165 12.2936 26.6318 11.3771 25.6762L10.7469 26.2807C11.8241 27.4038 13.2891 28.0383 14.8207 28.0383V27.165ZM11.3771 25.6762C10.46 24.72 9.9417 23.4194 9.9417 22.0597H9.06842C9.06842 23.6396 9.67022 25.1582 10.7469 26.2807L11.3771 25.6762ZM9.94134 22.0774C9.99286 20.8126 10.29 19.5723 10.8142 18.4318L10.0208 18.0671C9.44857 19.3119 9.12489 20.6641 9.06878 22.0419L9.94134 22.0774ZM10.8142 18.4318C11.3384 17.2914 12.0786 16.275 12.9889 15.4435L12.4 14.7987C11.402 15.7102 10.593 16.8223 10.0208 18.0671L10.8142 18.4318ZM12.9504 15.4748C13.9935 14.72 14.8439 13.7141 15.4301 12.5446L14.6494 12.1533C14.1248 13.1999 13.3656 14.0964 12.4385 14.7673L12.9504 15.4748ZM15.4301 12.5446C16.0164 11.3752 16.3216 10.0762 16.3205 8.75847L15.4472 8.75918C15.4482 9.94197 15.1741 11.1066 14.6494 12.1533L15.4301 12.5446ZM16.3205 8.75882V4.32521H15.4472V8.75882H16.3205ZM16.3205 4.32521C16.3205 3.33324 15.9427 2.37843 15.2648 1.67168L14.6346 2.27618C15.153 2.81663 15.4472 3.55338 15.4472 4.32521L16.3205 4.32521ZM15.2648 1.67168C14.5863 0.964312 13.6622 0.563356 12.6945 0.563356V1.43664C13.4185 1.43664 14.1168 1.73636 14.6346 2.27618L15.2648 1.67168ZM12.6945 0.563356H11.6313V1.43664H12.6945V0.563356ZM11.6313 0.563356C11.2275 0.563356 10.8442 0.730757 10.5645 1.02239L11.1947 1.6269C11.3137 1.5028 11.4712 1.43664 11.6313 1.43664V0.563356ZM10.5645 1.02239C10.2853 1.31341 10.1315 1.70437 10.1315 2.1084H11.0048C11.0048 1.9245 11.0751 1.75161 11.1947 1.6269L10.5645 1.02239ZM10.1315 2.1084C10.1315 2.51244 10.2853 2.9034 10.5645 3.19441L11.1947 2.58991C11.0751 2.4652 11.0048 2.2923 11.0048 2.1084H10.1315ZM10.5645 3.19441C10.8442 3.48605 11.2275 3.65345 11.6313 3.65345V2.78016C11.4712 2.78016 11.3137 2.71401 11.1947 2.58991L10.5645 3.19441ZM11.6313 3.65345H12.6945V2.78016H11.6313V3.65345ZM12.6945 3.65345C12.8546 3.65345 13.0121 3.71961 13.1311 3.8437L13.7613 3.2392C13.4816 2.94756 13.0982 2.78016 12.6945 2.78016V3.65345ZM13.1311 3.8437C13.2507 3.96842 13.3209 4.14131 13.3209 4.32521H14.1942C14.1942 3.92118 14.0405 3.53022 13.7613 3.2392L13.1311 3.8437ZM13.3209 4.32521V8.75882H14.1942V4.32521H13.3209ZM13.3209 8.75882C13.3209 9.43174 13.1938 10.0977 12.9472 10.7184L13.7587 11.0409C14.0464 10.3169 14.1942 9.54148 14.1942 8.75882H13.3209ZM12.9472 10.7184C12.7005 11.3392 12.3395 11.9021 11.8855 12.3754L12.5158 12.9799C13.049 12.4239 13.4711 11.7649 13.7587 11.0409L12.9472 10.7184ZM11.8855 12.3754C11.4316 12.8486 10.8937 13.223 10.303 13.4781L10.6493 14.2798C11.3484 13.9779 11.9825 13.5359 12.5158 12.9799L11.8855 12.3754ZM10.303 13.4781C9.71241 13.7332 9.08006 13.8642 8.44193 13.8642V14.7375C9.19992 14.7375 9.95003 14.5818 10.6493 14.2798L10.303 13.4781ZM21.1995 18.2978C20.7574 18.2978 20.3295 18.1149 20.0111 17.7829L19.3809 18.3874C19.86 18.8869 20.5138 19.1711 21.1995 19.1711V18.2978ZM20.0111 17.7829C19.6921 17.4503 19.5099 16.9955 19.5099 16.5176H18.6366C18.6366 17.2157 18.9024 17.8885 19.3809 18.3874L20.0111 17.7829ZM19.5099 16.5176C19.5099 16.0398 19.6921 15.585 20.0111 15.2524L19.3809 14.6479C18.9024 15.1468 18.6366 15.8196 18.6366 16.5176H19.5099ZM20.0111 15.2524C20.3295 14.9204 20.7574 14.7375 21.1995 14.7375V13.8642C20.5138 13.8642 19.86 14.1484 19.3809 14.6479L20.0111 15.2524ZM21.1995 14.7375C21.6416 14.7375 22.0695 14.9204 22.3879 15.2524L23.0181 14.6479C22.539 14.1484 21.8853 13.8642 21.1995 13.8642V14.7375ZM22.3879 15.2524C22.7069 15.585 22.8891 16.0398 22.8891 16.5176H23.7624C23.7624 15.8196 23.4966 15.1468 23.0181 14.6479L22.3879 15.2524ZM22.8891 16.5176C22.8891 16.9955 22.7069 17.4503 22.3879 17.7829L23.0181 18.3874C23.4966 17.8885 23.7624 17.2157 23.7624 16.5176H22.8891ZM22.3879 17.7829C22.0695 18.1149 21.6416 18.2978 21.1995 18.2978V19.1711C21.8853 19.1711 22.539 18.8869 23.0181 18.3874L22.3879 17.7829Z" fill="#3C8AFF" mask="url(#path-1-outside-1_1575_13439)"/>
</svg>
