<svg width="112" height="112" viewBox="0 0 112 112" fill="none" xmlns="http://www.w3.org/2000/svg">
<circle cx="56" cy="56" r="56" fill="#D9D9D9" fill-opacity="0.5"/>
<path d="M23.4009 40.954C23.9792 37.9528 26.654 35.8457 29.7105 35.8457H82.7446C85.5301 35.8457 88.0444 37.5943 88.7307 40.294C91.7619 52.2189 91.5504 67.1854 88.8321 76.5608C88.1217 79.011 85.7626 80.4795 83.2115 80.4795H29.9859C26.8052 80.4795 24.0695 78.1981 23.5479 75.0605C21.4689 62.5543 20.8989 53.9402 23.4009 40.954Z" fill="#494949"/>
<path d="M88.3234 38.7524C87.2438 36.2612 84.2752 35.7768 82.9258 35.846C90.9184 46.5374 86.2474 75.6013 83.5486 80.5837C88.7386 80.1685 88.3234 77.9887 89.569 72.6949C90.8146 67.4011 91.0222 57.5401 90.9184 55.2566C90.8146 52.973 89.6728 41.8664 88.3234 38.7524Z" fill="#535353"/>
<path d="M24.4071 38.7524C25.4866 36.2612 28.4553 35.7768 29.8047 35.846C21.8121 46.5374 26.4831 75.6013 29.1819 80.5837C23.9919 80.1685 24.4071 77.9887 23.1615 72.6949C21.9159 67.4011 21.7083 57.5401 21.8121 55.2566C21.9159 52.973 23.0577 41.8664 24.4071 38.7524Z" fill="#535353"/>
<rect x="19.2969" y="48.2959" width="74.3205" height="24.4967" rx="3.28492" fill="#3A3A3A"/>
<path d="M24.3828 57.0203L88.4272 56.3975L88.1073 57.517C87.8051 58.5747 86.8384 59.3038 85.7384 59.3038H26.7107C25.7571 59.3038 24.913 58.6867 24.6239 57.7779L24.3828 57.0203Z" fill="#2B2B2B"/>
<path d="M24.2852 50.4917C24.2852 49.2822 25.2656 48.3018 26.4751 48.3018H86.5171C87.5754 48.3018 88.4333 49.1597 88.4333 50.218V55.5952C88.4333 56.9559 87.3303 58.0589 85.9696 58.0589H26.4751C25.2656 58.0589 24.2852 57.0785 24.2852 55.869V50.4917Z" fill="#636161"/>
<path d="M23.875 39.5496C23.875 37.5045 25.5328 35.8467 27.5779 35.8467H85.5938C87.1648 35.8467 88.4384 37.1202 88.4384 38.6912C88.4384 42.3943 85.4364 45.3962 81.7333 45.3962H29.7217C26.4926 45.3962 23.875 42.7786 23.875 39.5496Z" fill="#616060"/>
<path d="M25.8673 38.7621C25.8673 38.6701 25.8718 38.5791 25.8805 38.4895L25.7443 38.4762C25.7631 38.2832 25.8007 38.0957 25.8553 37.9155L25.9863 37.9552C26.0395 37.7795 26.1096 37.6112 26.1949 37.4522L26.0742 37.3875C26.1647 37.2186 26.2714 37.0595 26.3922 36.9125L26.4979 36.9994C26.6135 36.8588 26.7426 36.7297 26.8832 36.6141L26.7963 36.5084C26.9433 36.3876 27.1023 36.2809 27.2713 36.1904L27.3359 36.3111C27.495 36.2259 27.6633 36.1557 27.839 36.1025L27.7993 35.9715C27.9794 35.9169 28.167 35.8793 28.36 35.8605L28.3733 35.9967C28.4629 35.988 28.5539 35.9836 28.6459 35.9836H28.9203V35.8467H29.4692V35.9836H30.0182V35.8467H30.5671V35.9836H31.116V35.8467H31.6649V35.9836H32.2138V35.8467H32.7627V35.9836H33.3116V35.8467H33.8605V35.9836H34.4094V35.8467H34.9583V35.9836H35.5072V35.8467H36.0561V35.9836H36.6051V35.8467H37.154V35.9836H37.7029V35.8467H38.2518V35.9836H38.8007V35.8467H39.3496V35.9836H39.8985V35.8467H40.4474V35.9836H40.9963V35.8467H41.5452V35.9836H42.0941V35.8467H42.643V35.9836H43.1919V35.8467H43.7409V35.9836H44.2898V35.8467H44.8387V35.9836H45.3876V35.8467H45.9365V35.9836H46.4854V35.8467H47.0343V35.9836H47.5832V35.8467H48.1321V35.9836H48.681V35.8467H49.2299V35.9836H49.7788V35.8467H50.3278V35.9836H50.8767V35.8467H51.4256V35.9836H51.9745V35.8467H52.5234V35.9836H53.0723V35.8467H53.6212V35.9836H54.1701V35.8467H54.719V35.9836H55.2679V35.8467H55.8168V35.9836H56.3657V35.8467H56.9147V35.9836H57.4636V35.8467H58.0125V35.9836H58.5614V35.8467H59.1103V35.9836H59.6592V35.8467H60.2081V35.9836H60.757V35.8467H61.3059V35.9836H61.8548V35.8467H62.4037V35.9836H62.9526V35.8467H63.5016V35.9836H64.0505V35.8467H64.5994V35.9836H65.1483V35.8467H65.6972V35.9836H66.2461V35.8467H66.795V35.9836H67.3439V35.8467H67.8928V35.9836H68.4417V35.8467H68.9906V35.9836H69.5395V35.8467H70.0885V35.9836H70.6374V35.8467H71.1863V35.9836H71.7352V35.8467H72.2841V35.9836H72.833V35.8467H73.3819V35.9836H73.9308V35.8467H74.4797V35.9836H75.0286V35.8467H75.5775V35.9836H76.1264V35.8467H76.6754V35.9836H77.2243V35.8467H77.7732V35.9836H78.3221V35.8467H78.871V35.9836H79.4199V35.8467H79.9688V35.9836H80.5177V35.8467H81.0666V35.9836H81.6155V35.8467H82.1644V35.9836H82.7133V35.8467H83.2622V35.9836H83.5367C83.6277 35.9836 83.7173 35.9895 83.805 36.0009L83.8227 35.8652C84.0159 35.8904 84.2011 35.9407 84.375 36.0129L84.3226 36.1393C84.4894 36.2085 84.6452 36.2991 84.7865 36.4077L84.8699 36.2991C85.0216 36.4157 85.1576 36.5517 85.2742 36.7034L85.1657 36.7868C85.2743 36.9281 85.3649 37.0839 85.434 37.2508L85.5605 37.1983C85.6326 37.3723 85.6829 37.5575 85.7081 37.7506L85.5724 37.7683C85.5839 37.8561 85.5898 37.9456 85.5898 38.0366V38.1611H85.7267V38.4099H85.5898V38.5343C85.5898 38.6297 85.5871 38.7245 85.5819 38.8186L85.7186 38.8261C85.7077 39.0225 85.686 39.216 85.6539 39.406L85.519 39.3832C85.4872 39.5715 85.445 39.7563 85.3931 39.9369L85.5246 39.9748C85.4705 40.1629 85.4061 40.3466 85.332 40.5253L85.2056 40.4728C85.1327 40.6485 85.0502 40.8192 84.9588 40.9843L85.0785 41.0506C84.984 41.2213 84.8802 41.3861 84.7677 41.5443L84.6562 41.465C84.5463 41.6196 84.4279 41.7678 84.3017 41.9089L84.4038 42.0001C84.2741 42.1451 84.1363 42.2829 83.9913 42.4126L83.9001 42.3105C83.759 42.4367 83.6108 42.5551 83.4562 42.665L83.5355 42.7765C83.3773 42.889 83.2125 42.9928 83.0418 43.0873L82.9755 42.9676C82.8104 43.059 82.6397 43.1415 82.464 43.2144L82.5165 43.3408C82.3378 43.4149 82.1541 43.4793 81.966 43.5334L81.9281 43.4019C81.7475 43.4538 81.5627 43.496 81.3744 43.5278L81.3972 43.6627C81.2072 43.6948 81.0137 43.7165 80.8173 43.7274L80.8098 43.5907C80.7157 43.5959 80.6209 43.5986 80.5255 43.5986H80.2548V43.7355H79.7132V43.5986H79.1717V43.7355H78.6301V43.5986H78.0886V43.7355H77.5471V43.5986H77.0055V43.7355H76.464V43.5986H75.9224V43.7355H75.3809V43.5986H74.8394V43.7355H74.2978V43.5986H73.7563V43.7355H73.2147V43.5986H72.6732V43.7355H72.1317V43.5986H71.5901V43.7355H71.0486V43.5986H70.507V43.7355H69.9655V43.5986H69.424V43.7355H68.8824V43.5986H68.3409V43.7355H67.7993V43.5986H67.2578V43.7355H66.7163V43.5986H66.1747V43.7355H65.6332V43.5986H65.0916V43.7355H64.5501V43.5986H64.0086V43.7355H63.467V43.5986H62.9255V43.7355H62.3839V43.5986H61.8424V43.7355H61.3009V43.5986H60.7593V43.7355H60.2178V43.5986H59.6762V43.7355H59.1347V43.5986H58.5932V43.7355H58.0516V43.5986H57.5101V43.7355H56.9685V43.5986H56.427V43.7355H55.8855V43.5986H55.3439V43.7355H54.8024V43.5986H54.2608V43.7355H53.7193V43.5986H53.1778V43.7355H52.6362V43.5986H52.0947V43.7355H51.5531V43.5986H51.0116V43.7355H50.4701V43.5986H49.9285V43.7355H49.387V43.5986H48.8454V43.7355H48.3039V43.5986H47.7623V43.7355H47.2208V43.5986H46.6793V43.7355H46.1377V43.5986H45.5962V43.7355H45.0546V43.5986H44.5131V43.7355H43.9716V43.5986H43.43V43.7355H42.8885V43.5986H42.3469V43.7355H41.8054V43.5986H41.2638V43.7355H40.7223V43.5986H40.1808V43.7355H39.6392V43.5986H39.0977V43.7355H38.5561V43.5986H38.0146V43.7355H37.473V43.5986H36.9315V43.7355H36.39V43.5986H35.8484V43.7355H35.3069V43.5986H34.7653V43.7355H34.2238V43.5986H33.6823V43.7355H33.1407V43.5986H32.5992V43.7355H32.0576V43.5986H31.5161V43.7355H30.9745V43.5986H30.7038C30.6127 43.5986 30.5222 43.5961 30.4324 43.5911L30.4248 43.7278C30.237 43.7174 30.052 43.6966 29.8703 43.6659L29.8931 43.531C29.7133 43.5006 29.5368 43.4603 29.3643 43.4107L29.3265 43.5423C29.1466 43.4905 28.9709 43.4289 28.8001 43.3581L28.8525 43.2316C28.6847 43.1621 28.5217 43.0833 28.364 42.996L28.2977 43.1157C28.1345 43.0253 27.977 42.9261 27.8257 42.8185L27.905 42.707C27.7573 42.602 27.6158 42.489 27.4811 42.3685L27.3898 42.4705C27.2511 42.3465 27.1195 42.2148 26.9954 42.0761L27.0975 41.9848C26.977 41.8501 26.8639 41.7086 26.759 41.5609L26.6474 41.6402C26.5399 41.4889 26.4406 41.3314 26.3502 41.1682L26.4699 41.1019C26.3826 40.9442 26.3039 40.7812 26.2343 40.6134L26.1078 40.6658C26.037 40.495 25.9754 40.3193 25.9237 40.1395L26.0552 40.1016C26.0056 39.9291 25.9653 39.7527 25.935 39.5728L25.8 39.5956C25.7694 39.4139 25.7485 39.2289 25.7382 39.0411L25.8748 39.0335C25.8699 38.9437 25.8673 38.8532 25.8673 38.7621Z" fill="#515050" stroke="#616161" stroke-width="0.273743" stroke-dasharray="0.55 0.55"/>
<path d="M91.543 48.2959C92.6895 48.2959 93.619 49.2254 93.619 50.3719V70.7166C93.619 71.8632 92.6895 72.7926 91.543 72.7926V48.2959Z" fill="#565656"/>
<path d="M21.3672 48.2959C20.2206 48.2959 19.2912 49.2254 19.2912 50.3719V70.7166C19.2912 71.8632 20.2206 72.7926 21.3672 72.7926V48.2959Z" fill="#565656"/>
<rect x="76.8008" y="64.6953" width="11.418" height="3.32159" rx="1.66079" fill="#2D2D2D"/>
<rect x="26.9883" y="50.9951" width="11.0028" height="2.90639" rx="1.36872" fill="#919191"/>
<rect x="53.1406" y="37.293" width="11.418" height="1.038" rx="0.518998" fill="#7C7C7C"/>
<rect x="72.2344" y="64.6953" width="3.32159" height="3.32159" rx="1.66079" fill="#2D2D2D"/>
</svg>
