<svg width="230" height="204" viewBox="0 0 230 204" fill="none" xmlns="http://www.w3.org/2000/svg">
<circle cx="82.5" cy="121.5" r="82.5" fill="#E2EDFF"/>
<circle cx="51.5" cy="33.5" r="33.5" fill="#E2EDFF"/>
<circle cx="196.5" cy="83.5" r="33.5" fill="#E2EDFF"/>
<path d="M47.1761 175.996L39.3123 39.2519C39.2672 38.6144 39.3548 37.9746 39.5694 37.3726C39.784 36.7707 40.121 36.2198 40.5591 35.7546C40.9973 35.2895 41.5271 34.9201 42.1151 34.6699C42.7031 34.4198 43.3366 34.2942 43.9756 34.301H199.929C201.264 34.3173 202.544 34.8358 203.513 35.7533C204.483 36.6709 205.071 37.92 205.161 39.2519L213.019 175.996C213.065 176.633 212.978 177.273 212.764 177.874C212.55 178.476 212.214 179.026 211.776 179.491C211.338 179.956 210.809 180.325 210.221 180.574C209.633 180.824 209 180.949 208.362 180.941H52.4016C51.068 180.926 49.7891 180.409 48.8204 179.492C47.8517 178.575 47.2645 177.327 47.1761 175.996Z" fill="#263238"/>
<path d="M208.362 181.247H52.4022C50.9918 181.228 49.6402 180.679 48.6154 179.71C47.5907 178.741 46.9677 177.422 46.87 176.015L39.0126 39.2642C38.9639 38.5859 39.0566 37.9048 39.2848 37.2641C39.513 36.6234 39.8718 36.0371 40.3384 35.5423C40.805 35.0474 41.3693 34.6549 41.9955 34.3895C42.6217 34.1241 43.2961 33.9916 43.9762 34.0004H199.93C201.341 34.018 202.693 34.566 203.718 35.5355C204.743 36.5049 205.366 37.8247 205.462 39.2323L213.326 175.977C213.373 176.655 213.28 177.336 213.052 177.977C212.823 178.617 212.464 179.204 211.998 179.699C211.532 180.194 210.968 180.587 210.342 180.854C209.716 181.12 209.042 181.254 208.362 181.247ZM47.5088 175.977C47.5938 177.231 48.1477 178.407 49.0603 179.271C49.9729 180.135 51.1774 180.624 52.4341 180.64H208.362C208.959 180.646 209.551 180.528 210.1 180.294C210.649 180.06 211.143 179.715 211.553 179.281C211.962 178.847 212.277 178.332 212.477 177.77C212.678 177.208 212.76 176.611 212.719 176.015L204.861 39.2642C204.775 38.0104 204.219 36.8351 203.306 35.9721C202.392 35.1092 201.187 34.622 199.93 34.6073H43.9762C43.3789 34.5995 42.7864 34.7159 42.2364 34.9492C41.6865 35.1824 41.191 35.5274 40.7814 35.9623C40.3717 36.3971 40.0569 36.9123 39.8569 37.4752C39.6569 38.0382 39.5761 38.6365 39.6195 39.2323L47.5088 175.977Z" fill="#263238"/>
<path d="M49.0862 175.996L41.2224 39.2519C41.1774 38.6144 41.2649 37.9746 41.4795 37.3726C41.6941 36.7707 42.0311 36.2198 42.4693 35.7546C42.9074 35.2895 43.4372 34.9201 44.0253 34.6699C44.6133 34.4198 45.2468 34.2942 45.8858 34.301H201.839C203.174 34.3173 204.454 34.8358 205.424 35.7533C206.393 36.6709 206.981 37.92 207.071 39.2519L214.929 175.996C214.975 176.633 214.888 177.273 214.674 177.874C214.46 178.476 214.124 179.026 213.686 179.491C213.248 179.956 212.719 180.325 212.131 180.574C211.543 180.824 210.91 180.949 210.272 180.941H54.3117C52.9782 180.926 51.6993 180.409 50.7306 179.492C49.7619 178.575 49.1746 177.327 49.0862 175.996Z" fill="white"/>
<path d="M210.272 181.247H54.3123C52.9031 181.226 51.553 180.677 50.5296 179.708C49.5062 178.739 48.8841 177.421 48.7866 176.015L40.9228 39.2642C40.8741 38.5859 40.9668 37.9048 41.195 37.2641C41.4232 36.6234 41.782 36.0371 42.2486 35.5423C42.7152 35.0474 43.2794 34.6549 43.9056 34.3895C44.5318 34.1241 45.2063 33.9916 45.8863 34.0004H201.84C203.251 34.018 204.603 34.566 205.628 35.5355C206.653 36.5049 207.276 37.8247 207.372 39.2323L215.236 175.977C215.284 176.655 215.19 177.336 214.962 177.977C214.733 178.617 214.375 179.204 213.908 179.699C213.442 180.194 212.878 180.587 212.252 180.854C211.627 181.12 210.952 181.254 210.272 181.247ZM45.8863 34.6073C45.289 34.5995 44.6966 34.7159 44.1466 34.9492C43.5966 35.1824 43.1011 35.5274 42.6915 35.9623C42.2819 36.3971 41.9671 36.9123 41.7671 37.4752C41.5671 38.0382 41.4862 38.6365 41.5296 39.2323L49.3871 175.977C49.472 177.231 50.0259 178.407 50.9385 179.271C51.8512 180.135 53.0556 180.624 54.3123 180.64H210.272C210.869 180.646 211.461 180.528 212.01 180.294C212.559 180.06 213.054 179.715 213.463 179.281C213.872 178.847 214.187 178.332 214.388 177.77C214.588 177.208 214.671 176.611 214.629 176.015L206.772 39.2642C206.682 38.0114 206.126 36.8378 205.213 35.9755C204.299 35.1131 203.096 34.6249 201.84 34.6073H45.8863Z" fill="#263238"/>
<path d="M101.507 54.0531H57.9273C57.1351 54.033 56.3787 53.7192 55.8049 53.1726C55.2311 52.626 54.8811 51.8856 54.8227 51.0954C54.7971 50.7177 54.8499 50.3389 54.9777 49.9826C55.1054 49.6264 55.3055 49.3004 55.5652 49.025C55.8249 48.7497 56.1387 48.5311 56.4869 48.3828C56.8352 48.2344 57.2103 48.1597 57.5887 48.1632H101.169C101.959 48.174 102.717 48.4814 103.292 49.0244C103.867 49.5674 104.217 50.3065 104.273 51.0954C104.303 51.475 104.252 51.8566 104.126 52.216C104 52.5753 103.801 52.9044 103.541 53.1826C103.281 53.4607 102.966 53.6817 102.615 53.8316C102.265 53.9814 101.888 54.0568 101.507 54.0531Z" fill="#3C8AFF"/>
<path d="M93.5035 64.2168H58.5092C57.7247 64.205 56.9726 63.9014 56.3998 63.3652C55.827 62.829 55.4744 62.0986 55.411 61.3165C55.3846 60.9389 55.4365 60.56 55.5635 60.2034C55.6904 59.8468 55.8897 59.5203 56.1489 59.2444C56.408 58.9685 56.7213 58.7491 57.0693 58.6C57.4172 58.4509 57.7922 58.3753 58.1707 58.378H93.1585C93.9503 58.389 94.7091 58.6972 95.2842 59.2415C95.8593 59.7859 96.2087 60.5265 96.2632 61.3165C96.2841 61.691 96.2281 62.0659 96.0987 62.4179C95.9692 62.7699 95.7691 63.0917 95.5105 63.3635C95.2519 63.6352 94.9405 63.8511 94.5953 63.9978C94.2501 64.1446 93.8785 64.2191 93.5035 64.2168Z" fill="#3C8AFF"/>
<path d="M110.617 77.3379H58.2341C57.7191 77.3322 57.2255 77.1311 56.8531 76.7754C56.4807 76.4196 56.2574 75.9356 56.2282 75.4214C56.2087 75.1756 56.2406 74.9284 56.3219 74.6955C56.4031 74.4627 56.532 74.2493 56.7003 74.0691C56.8685 73.8888 57.0725 73.7455 57.2992 73.6484C57.5259 73.5513 57.7703 73.5024 58.0169 73.505H110.4C110.914 73.5121 111.407 73.7137 111.779 74.0692C112.151 74.4247 112.375 74.9077 112.406 75.4214C112.425 75.6673 112.393 75.9145 112.312 76.1473C112.231 76.3801 112.102 76.5935 111.933 76.7738C111.765 76.9541 111.561 77.0973 111.335 77.1945C111.108 77.2916 110.863 77.3404 110.617 77.3379Z" fill="#E0E0E0"/>
<path d="M120.066 83.3809H64.3421C63.8275 83.3738 63.3348 83.1722 62.9627 82.8167C62.5906 82.4612 62.3668 81.9782 62.3362 81.4645C62.3157 81.2184 62.3469 80.9708 62.4278 80.7375C62.5087 80.5043 62.6375 80.2905 62.806 80.11C62.9744 79.9295 63.1788 79.7863 63.406 79.6895C63.6331 79.5927 63.878 79.5445 64.1249 79.548H119.849C120.364 79.5537 120.857 79.7547 121.23 80.1105C121.602 80.4663 121.825 80.9503 121.855 81.4645C121.874 81.7103 121.842 81.9575 121.761 82.1904C121.68 82.4232 121.551 82.6366 121.382 82.8168C121.214 82.9971 121.01 83.1404 120.784 83.2375C120.557 83.3346 120.312 83.3835 120.066 83.3809Z" fill="#E0E0E0"/>
<path d="M110.208 89.424H64.6865C64.1721 89.4183 63.6792 89.217 63.3079 88.8611C62.9365 88.5051 62.7145 88.0212 62.687 87.5076C62.6645 87.2616 62.6941 87.0137 62.7739 86.78C62.8537 86.5463 62.9818 86.332 63.15 86.1512C63.3182 85.9704 63.5226 85.827 63.7499 85.7305C63.9773 85.634 64.2224 85.5865 64.4693 85.5911H109.991C110.507 85.5953 111.001 85.7958 111.374 86.1519C111.747 86.508 111.969 86.9928 111.997 87.5076C112.017 87.7534 111.985 88.0006 111.903 88.2335C111.822 88.4663 111.693 88.6796 111.525 88.8599C111.357 89.0402 111.153 89.1835 110.926 89.2806C110.699 89.3777 110.455 89.4266 110.208 89.424Z" fill="#E0E0E0"/>
<path d="M105.417 95.4669H65.038C64.523 95.4612 64.0293 95.2601 63.6569 94.9044C63.2846 94.5486 63.0612 94.0646 63.0321 93.5504C63.0106 93.3047 63.0409 93.0572 63.1211 92.8239C63.2012 92.5907 63.3295 92.3768 63.4974 92.1962C63.6654 92.0156 63.8694 91.8722 64.0963 91.7754C64.3231 91.6785 64.5677 91.6304 64.8144 91.634H105.2C105.715 91.6396 106.209 91.8407 106.581 92.1965C106.954 92.5523 107.177 93.0362 107.206 93.5504C107.226 93.7963 107.194 94.0435 107.112 94.2763C107.031 94.5091 106.902 94.7225 106.734 94.9028C106.566 95.0831 106.362 95.2263 106.135 95.3234C105.908 95.4206 105.664 95.4694 105.417 95.4669Z" fill="#E0E0E0"/>
<path d="M92.546 105.299H59.8324C59.3175 105.295 58.8238 105.094 58.4521 104.738C58.0804 104.381 57.8589 103.897 57.8329 103.382C57.8114 103.137 57.8417 102.889 57.9219 102.656C58.002 102.423 58.1302 102.209 58.2982 102.028C58.4662 101.848 58.6702 101.704 58.897 101.607C59.1239 101.511 59.3685 101.462 59.6152 101.466H92.3288C92.8434 101.473 93.3361 101.675 93.7082 102.03C94.0803 102.386 94.3041 102.869 94.3347 103.382C94.3552 103.629 94.324 103.876 94.2431 104.109C94.1622 104.343 94.0334 104.556 93.8649 104.737C93.6964 104.917 93.4921 105.061 93.2649 105.157C93.0378 105.254 92.7929 105.302 92.546 105.299Z" fill="#E0E0E0"/>
<path d="M101.807 119.64H66.4232C66.1766 119.637 65.9321 119.686 65.7055 119.783C65.4788 119.88 65.2748 120.024 65.1065 120.204C64.9383 120.384 64.8094 120.597 64.7281 120.83C64.6468 121.063 64.615 121.31 64.6345 121.556C64.6651 122.07 64.8889 122.553 65.261 122.908C65.633 123.264 66.1258 123.465 66.6404 123.473H102.037C102.284 123.475 102.528 123.426 102.755 123.329C102.981 123.232 103.185 123.089 103.354 122.909C103.522 122.728 103.651 122.515 103.732 122.282C103.813 122.049 103.845 121.802 103.826 121.556C103.796 121.04 103.571 120.554 103.196 120.198C102.821 119.842 102.324 119.642 101.807 119.64Z" fill="#E0E0E0"/>
<path d="M94.7813 113.597H66.0794C65.8328 113.594 65.5884 113.643 65.3617 113.74C65.135 113.837 64.931 113.981 64.7628 114.161C64.5945 114.341 64.4656 114.555 64.3844 114.787C64.3031 115.02 64.2712 115.267 64.2907 115.513C64.3199 116.027 64.5432 116.511 64.9156 116.867C65.288 117.223 65.7816 117.424 66.2966 117.43H94.973C95.2199 117.433 95.4647 117.385 95.6919 117.288C95.919 117.191 96.1234 117.048 96.2919 116.868C96.4603 116.687 96.5892 116.473 96.6701 116.24C96.751 116.007 96.7822 115.759 96.7617 115.513C96.7329 115.003 96.5131 114.523 96.1461 114.168C95.7792 113.813 95.2919 113.609 94.7813 113.597Z" fill="#E0E0E0"/>
<path d="M97.6998 107.554H65.7591C65.5128 107.551 65.2686 107.6 65.0422 107.697C64.8158 107.794 64.6122 107.938 64.4445 108.118C64.2767 108.299 64.1484 108.512 64.0679 108.745C63.9874 108.978 63.9564 109.225 63.9768 109.47C64.0044 109.984 64.2264 110.468 64.5977 110.824C64.9691 111.18 65.462 111.381 65.9763 111.387H97.949C98.1958 111.39 98.4407 111.342 98.6679 111.245C98.895 111.148 99.0994 111.005 99.2679 110.825C99.4363 110.644 99.5652 110.43 99.6461 110.197C99.727 109.964 99.7582 109.716 99.7376 109.47C99.7066 108.951 99.4784 108.463 99.0995 108.107C98.7206 107.751 98.2199 107.553 97.6998 107.554Z" fill="#E0E0E0"/>
<path d="M95.1964 151.389H62.4827C61.9682 151.382 61.4754 151.18 61.1033 150.825C60.7312 150.469 60.5074 149.986 60.4768 149.472C60.4563 149.226 60.4875 148.979 60.5684 148.745C60.6493 148.512 60.7781 148.298 60.9466 148.118C61.1151 147.937 61.3194 147.794 61.5466 147.697C61.7737 147.6 62.0186 147.552 62.2655 147.556H94.9792C95.4935 147.562 95.9864 147.763 96.3578 148.119C96.7291 148.475 96.9511 148.959 96.9787 149.472C97.0001 149.718 96.9698 149.965 96.8897 150.199C96.8095 150.432 96.6813 150.646 96.5133 150.827C96.3453 151.007 96.1413 151.15 95.9145 151.247C95.6876 151.344 95.443 151.392 95.1964 151.389Z" fill="#E0E0E0"/>
<path d="M104.472 165.736H69.0755C68.8289 165.734 68.5845 165.783 68.3578 165.88C68.1311 165.977 67.9271 166.12 67.7589 166.301C67.5906 166.481 67.4617 166.694 67.3805 166.927C67.2992 167.16 67.2673 167.407 67.2868 167.653C67.3174 168.167 67.5412 168.65 67.9133 169.005C68.2854 169.361 68.7782 169.562 69.2927 169.569H104.689C104.936 169.573 105.181 169.525 105.408 169.428C105.635 169.331 105.84 169.188 106.008 169.007C106.177 168.827 106.306 168.613 106.386 168.38C106.467 168.147 106.499 167.899 106.478 167.653C106.447 167.139 106.224 166.656 105.852 166.301C105.48 165.945 104.987 165.744 104.472 165.736Z" fill="#E0E0E0"/>
<path d="M97.4067 159.693H68.724C68.4776 159.691 68.2334 159.74 68.0071 159.837C67.7807 159.934 67.5771 160.077 67.4093 160.258C67.2415 160.438 67.1133 160.652 67.0327 160.884C66.9522 161.117 66.9212 161.364 66.9417 161.61C66.9708 162.124 67.1941 162.608 67.5665 162.964C67.9389 163.32 68.4325 163.521 68.9475 163.526H97.6239C97.8705 163.529 98.1149 163.48 98.3416 163.383C98.5683 163.286 98.7723 163.143 98.9405 162.962C99.1088 162.782 99.2377 162.569 99.319 162.336C99.4002 162.103 99.4321 161.856 99.4126 161.61C99.382 161.096 99.1582 160.613 98.7861 160.258C98.414 159.902 97.9212 159.701 97.4067 159.693Z" fill="#E0E0E0"/>
<path d="M100.351 153.651H68.41C68.1632 153.647 67.9183 153.695 67.6911 153.792C67.464 153.889 67.2596 154.032 67.0911 154.213C66.9227 154.393 66.7938 154.607 66.7129 154.84C66.632 155.073 66.6008 155.321 66.6214 155.567C66.652 156.081 66.8758 156.564 67.2478 156.919C67.6199 157.275 68.1127 157.476 68.6272 157.483H100.6C100.846 157.486 101.091 157.437 101.318 157.34C101.544 157.243 101.748 157.1 101.917 156.919C102.085 156.739 102.214 156.526 102.295 156.293C102.376 156.06 102.408 155.813 102.389 155.567C102.358 155.048 102.129 154.56 101.75 154.204C101.372 153.848 100.871 153.65 100.351 153.651Z" fill="#E0E0E0"/>
<path d="M102.861 137.77H67.4648C67.2181 137.766 66.9735 137.814 66.7466 137.911C66.5198 138.008 66.3158 138.151 66.1478 138.332C65.9798 138.513 65.8516 138.726 65.7715 138.96C65.6913 139.193 65.661 139.44 65.6825 139.686C65.71 140.2 65.932 140.684 66.3034 141.04C66.6747 141.396 67.1676 141.597 67.682 141.603H103.085C103.332 141.606 103.577 141.558 103.804 141.461C104.031 141.364 104.235 141.221 104.404 141.041C104.572 140.86 104.701 140.646 104.782 140.413C104.863 140.18 104.894 139.932 104.874 139.686C104.845 139.171 104.62 138.686 104.247 138.33C103.873 137.974 103.378 137.774 102.861 137.77Z" fill="#E0E0E0"/>
<path d="M95.7968 131.727H67.1204C66.8738 131.724 66.6294 131.773 66.4027 131.87C66.176 131.967 65.9721 132.11 65.8038 132.291C65.6355 132.471 65.5067 132.684 65.4254 132.917C65.3441 133.15 65.3122 133.397 65.3317 133.643C65.3623 134.157 65.5862 134.64 65.9582 134.995C66.3303 135.351 66.8231 135.552 67.3376 135.56H96.014C96.2606 135.562 96.505 135.513 96.7317 135.416C96.9584 135.319 97.1623 135.176 97.3306 134.995C97.4989 134.815 97.6278 134.602 97.709 134.369C97.7903 134.136 97.8222 133.889 97.8027 133.643C97.7735 133.129 97.5502 132.645 97.1778 132.289C96.8054 131.933 96.3118 131.732 95.7968 131.727Z" fill="#E0E0E0"/>
<path d="M98.7408 125.683H66.8001C66.5538 125.68 66.3096 125.729 66.0832 125.826C65.8568 125.923 65.6532 126.067 65.4855 126.247C65.3177 126.427 65.1894 126.641 65.1089 126.874C65.0284 127.107 64.9974 127.354 65.0178 127.599C65.047 128.113 65.2703 128.597 65.6427 128.953C66.0151 129.309 66.5087 129.51 67.0237 129.516H98.9644C99.211 129.518 99.4554 129.469 99.6821 129.372C99.9088 129.275 100.113 129.132 100.281 128.952C100.449 128.771 100.578 128.558 100.659 128.325C100.741 128.092 100.773 127.845 100.753 127.599C100.722 127.084 100.498 126.6 100.124 126.245C99.7508 125.889 99.2565 125.688 98.7408 125.683Z" fill="#E0E0E0"/>
<path d="M158.7 76.0728H142.903C138.641 76.0217 134.556 74.3678 131.459 71.4403C128.362 68.5128 126.481 64.5265 126.191 60.275C126.047 58.2392 126.327 56.1956 127.012 54.2733C127.698 52.351 128.775 50.5917 130.175 49.1066C131.574 47.6214 133.267 46.4427 135.146 45.6448C137.024 44.8468 139.048 44.4471 141.088 44.4707C145.35 44.5221 149.436 46.1771 152.531 49.1061C155.627 52.035 157.506 56.0228 157.793 60.275L158.7 76.0728Z" fill="#3C8AFF"/>
<path d="M142.743 73.3383C139.22 73.2951 135.843 71.9268 133.284 69.506C130.724 67.0852 129.17 63.7893 128.931 60.2746C128.811 58.5918 129.041 56.9024 129.607 55.3132C130.173 53.724 131.063 52.2695 132.22 51.0416C133.377 49.8138 134.776 48.8394 136.329 48.18C137.882 47.5207 139.554 47.1906 141.241 47.2108C144.766 47.251 148.145 48.6181 150.706 51.0393C153.267 53.4606 154.821 56.7582 155.059 60.2746C155.178 61.9576 154.947 63.6472 154.381 65.2364C153.814 66.8257 152.923 68.2801 151.766 69.5078C150.609 70.7355 149.209 71.7098 147.656 72.3691C146.103 73.0284 144.43 73.3585 142.743 73.3383Z" fill="white"/>
<path d="M143.548 54.9854L144.187 65.5641H141.261L140.865 58.633C140.452 58.963 140.009 59.2539 139.542 59.5018C139.018 59.7599 138.473 59.9736 137.913 60.1406L137.779 57.7706C138.588 57.5386 139.343 57.1501 140.002 56.6271C140.523 56.1828 140.928 55.6197 141.184 54.9854H143.548Z" fill="#263238"/>
<path d="M168.456 107.674H184.254C186.295 107.698 188.318 107.298 190.196 106.5C192.074 105.702 193.766 104.524 195.166 103.038C196.565 101.553 197.641 99.7938 198.326 97.8715C199.011 95.9492 199.29 93.9057 199.145 91.8702C198.856 87.6192 196.977 83.633 193.881 80.7053C190.785 77.7777 186.7 76.1236 182.44 76.0724C180.399 76.0478 178.376 76.4468 176.498 77.244C174.619 78.0412 172.926 79.2193 171.526 80.7039C170.126 82.1886 169.05 83.9475 168.364 85.8694C167.678 87.7914 167.399 89.8347 167.543 91.8702L168.456 107.674Z" fill="#3C8AFF"/>
<path d="M184.094 104.934C185.781 104.954 187.454 104.624 189.007 103.965C190.56 103.305 191.96 102.331 193.117 101.103C194.275 99.8757 195.165 98.4213 195.732 96.832C196.298 95.2428 196.529 93.5533 196.41 91.8702C196.171 88.3544 194.616 85.0576 192.056 82.6366C189.495 80.2157 186.116 78.8481 182.592 78.8065C180.906 78.7872 179.234 79.1179 177.681 79.7776C176.129 80.4373 174.73 81.4117 173.573 82.6394C172.416 83.867 171.527 85.3211 170.96 86.9099C170.394 88.4987 170.163 90.1877 170.283 91.8702C170.52 95.3855 172.073 98.6822 174.633 101.103C177.193 103.524 180.571 104.892 184.094 104.934Z" fill="white"/>
<path d="M188.266 97.1601H179.597C179.644 96.3042 179.905 95.4738 180.357 94.7454C181.094 93.7097 182.001 92.8067 183.04 92.0751C183.616 91.6699 184.134 91.1885 184.58 90.6442C184.781 90.3751 184.889 90.0475 184.886 89.7115C184.878 89.556 184.838 89.4038 184.769 89.2643C184.7 89.1248 184.603 89.0009 184.484 88.9002C184.239 88.6743 183.916 88.5528 183.583 88.5617C183.42 88.5533 183.256 88.5803 183.104 88.641C182.952 88.7016 182.815 88.7944 182.702 88.913C182.434 89.2652 182.292 89.6971 182.299 90.1395L179.393 89.9032C179.414 89.2337 179.589 88.578 179.904 87.9867C180.191 87.5188 180.618 87.1524 181.124 86.9391C181.846 86.6586 182.618 86.5324 183.392 86.5686C184.205 86.5356 185.017 86.6548 185.787 86.9199C186.343 87.1358 186.826 87.5059 187.18 87.9867C187.527 88.457 187.73 89.0189 187.761 89.6029C187.794 90.2394 187.636 90.8712 187.307 91.4172C186.799 92.1743 186.148 92.8252 185.391 93.3336C184.829 93.7361 184.458 94.0171 184.273 94.1832C184.049 94.3842 183.835 94.5974 183.634 94.822H188.151L188.266 97.1601Z" fill="#263238"/>
<g opacity="0.4">
<path d="M162.335 139.251H146.524C142.263 139.2 138.177 137.546 135.081 134.619C131.984 131.691 130.103 127.705 129.813 123.453C129.668 121.418 129.946 119.375 130.631 117.453C131.316 115.531 132.393 113.772 133.792 112.287C135.192 110.803 136.884 109.624 138.762 108.827C140.64 108.03 142.663 107.631 144.703 107.655C148.965 107.706 153.05 109.36 156.147 112.288C159.244 115.215 161.125 119.202 161.415 123.453L162.335 139.251Z" fill="#3C8AFF"/>
</g>
<path d="M146.377 136.537C142.854 136.495 139.476 135.127 136.917 132.706C134.357 130.285 132.804 126.988 132.566 123.473C132.446 121.79 132.676 120.101 133.242 118.511C133.808 116.922 134.698 115.468 135.855 114.24C137.012 113.012 138.411 112.038 139.964 111.378C141.516 110.719 143.189 110.389 144.876 110.409C148.394 110.459 151.765 111.83 154.319 114.25C156.873 116.67 158.423 119.962 158.662 123.473C158.781 125.153 158.551 126.84 157.986 128.427C157.421 130.014 156.534 131.467 155.38 132.694C154.226 133.921 152.83 134.896 151.281 135.558C149.731 136.219 148.062 136.552 146.377 136.537Z" fill="white"/>
<path d="M144.092 121.282L141.332 120.79C141.464 119.997 141.891 119.283 142.527 118.791C143.33 118.276 144.277 118.032 145.229 118.094C146.282 118.01 147.333 118.278 148.218 118.854C148.518 119.08 148.764 119.368 148.94 119.7C149.115 120.031 149.216 120.397 149.234 120.771C149.267 121.199 149.162 121.627 148.934 121.991C148.669 122.394 148.306 122.723 147.88 122.949C148.209 123.016 148.525 123.132 148.819 123.294C149.171 123.498 149.465 123.789 149.675 124.137C149.896 124.514 150.019 124.94 150.033 125.377C150.067 125.981 149.937 126.584 149.656 127.121C149.377 127.672 148.929 128.119 148.378 128.398C147.652 128.731 146.857 128.887 146.059 128.852C145.291 128.879 144.524 128.764 143.798 128.513C143.26 128.307 142.78 127.974 142.399 127.542C141.993 127.068 141.685 126.519 141.492 125.926L144.36 125.543C144.441 125.995 144.647 126.415 144.954 126.757C145.208 126.99 145.542 127.118 145.887 127.114C146.066 127.12 146.244 127.085 146.408 127.012C146.572 126.939 146.717 126.83 146.832 126.693C147.081 126.369 147.195 125.962 147.152 125.556C147.152 125.14 146.997 124.739 146.717 124.431C146.58 124.3 146.418 124.197 146.24 124.129C146.062 124.06 145.873 124.029 145.682 124.035C145.367 124.05 145.056 124.108 144.756 124.208V122.144C144.884 122.151 145.012 122.151 145.139 122.144C145.31 122.15 145.48 122.121 145.639 122.059C145.798 121.998 145.943 121.905 146.066 121.787C146.179 121.675 146.267 121.54 146.323 121.391C146.38 121.242 146.403 121.083 146.391 120.924C146.385 120.638 146.268 120.366 146.066 120.164C145.846 119.97 145.56 119.869 145.267 119.883C145.118 119.876 144.969 119.9 144.83 119.952C144.69 120.005 144.563 120.086 144.456 120.19C144.218 120.504 144.09 120.888 144.092 121.282Z" fill="#263238"/>
<path d="M172.077 170.872H187.875C189.915 170.896 191.939 170.496 193.817 169.698C195.696 168.9 197.388 167.722 198.788 166.237C200.188 164.751 201.265 162.992 201.951 161.07C202.636 159.148 202.916 157.104 202.772 155.068C202.486 150.814 200.608 146.824 197.512 143.893C194.417 140.961 190.33 139.304 186.067 139.251C184.027 139.226 182.003 139.625 180.125 140.423C178.247 141.22 176.555 142.398 175.155 143.883C173.756 145.368 172.68 147.127 171.995 149.049C171.31 150.971 171.031 153.014 171.176 155.049L172.077 170.872Z" fill="#E0E0E0"/>
<path d="M187.729 168.132C189.415 168.152 191.088 167.822 192.641 167.163C194.194 166.503 195.593 165.529 196.75 164.301C197.907 163.073 198.797 161.619 199.363 160.029C199.929 158.44 200.159 156.751 200.038 155.068C199.799 151.554 198.245 148.259 195.686 145.839C193.126 143.419 189.749 142.052 186.227 142.011C184.541 141.991 182.868 142.32 181.316 142.979C179.763 143.638 178.364 144.612 177.206 145.839C176.049 147.066 175.159 148.52 174.591 150.108C174.024 151.697 173.793 153.385 173.911 155.068C174.15 158.584 175.705 161.881 178.265 164.302C180.826 166.723 184.205 168.09 187.729 168.132Z" fill="white"/>
<path d="M187.671 158.416H182.408L182.273 156.04L187.173 149.779H189.696L190.061 156.167H191.37L191.498 158.41H190.22L190.335 160.326H187.818L187.671 158.416ZM187.544 156.174L187.352 152.903L184.758 156.174H187.544Z" fill="#E0E0E0"/>
<path d="M166.328 139.833C166.184 139.831 166.047 139.776 165.943 139.678C165.838 139.579 165.775 139.445 165.765 139.302L162.137 76.1046C162.125 76.0273 162.13 75.9485 162.151 75.8732C162.172 75.7979 162.208 75.7278 162.257 75.6672C162.306 75.6067 162.368 75.557 162.437 75.5215C162.507 75.486 162.583 75.4653 162.661 75.4609C162.739 75.4564 162.817 75.4683 162.89 75.4956C162.963 75.523 163.03 75.5653 163.086 75.6199C163.142 75.6744 163.185 75.74 163.215 75.8125C163.244 75.8849 163.257 75.9627 163.255 76.0407L166.858 139.251C166.867 139.399 166.816 139.545 166.718 139.656C166.62 139.768 166.482 139.836 166.334 139.845L166.328 139.833Z" fill="#3C8AFF"/>
<path d="M168.117 171.428C167.975 171.429 167.838 171.374 167.735 171.277C167.631 171.18 167.569 171.046 167.561 170.904L165.74 139.302C165.745 139.162 165.802 139.029 165.9 138.928C165.998 138.828 166.13 138.768 166.27 138.76C166.41 138.752 166.548 138.796 166.657 138.885C166.766 138.974 166.838 139.1 166.858 139.238L168.679 170.841C168.686 170.989 168.634 171.134 168.535 171.244C168.435 171.354 168.297 171.42 168.149 171.428H168.117Z" fill="#E0E0E0"/>
<path d="M163.849 76.0725C163.859 76.2245 163.838 76.3771 163.787 76.5205C163.736 76.664 163.656 76.7954 163.551 76.9064C163.447 77.0174 163.321 77.1056 163.181 77.1654C163.041 77.2253 162.89 77.2556 162.737 77.2543C162.414 77.2553 162.103 77.1339 161.866 76.9146C161.629 76.6954 161.484 76.3945 161.46 76.0725C161.449 75.92 161.47 75.7669 161.522 75.623C161.573 75.4791 161.654 75.3474 161.759 75.2363C161.864 75.1252 161.991 75.0372 162.132 74.9777C162.273 74.9182 162.425 74.8886 162.578 74.8907C162.899 74.8914 163.209 75.0135 163.445 75.2326C163.68 75.4517 163.825 75.7517 163.849 76.0725Z" fill="white"/>
<path d="M162.738 77.8171C162.276 77.8117 161.834 77.6324 161.499 77.315C161.163 76.9977 160.96 76.5656 160.93 76.1051C160.914 75.8764 160.946 75.6469 161.023 75.4311C161.1 75.2152 161.221 75.0177 161.378 74.8509C161.535 74.6841 161.725 74.5516 161.936 74.4618C162.147 74.372 162.374 74.3269 162.603 74.3292C163.065 74.3361 163.506 74.5159 163.841 74.8329C164.176 75.15 164.379 75.5812 164.411 76.0412C164.429 76.2741 164.398 76.5081 164.32 76.7282C164.242 76.9483 164.119 77.1495 163.958 77.3188C163.8 77.4817 163.61 77.61 163.4 77.6958C163.19 77.7815 162.964 77.8229 162.738 77.8171ZM162.603 75.4535C162.528 75.4518 162.452 75.4657 162.382 75.4942C162.312 75.5228 162.248 75.5655 162.195 75.6196C162.141 75.675 162.1 75.7414 162.075 75.8142C162.049 75.887 162.04 75.9645 162.048 76.0412C162.065 76.2136 162.144 76.3737 162.272 76.4914C162.399 76.6091 162.564 76.6762 162.738 76.68C162.814 76.6817 162.889 76.6679 162.959 76.6393C163.03 76.6107 163.093 76.5681 163.146 76.5139C163.198 76.4568 163.237 76.3901 163.262 76.3178C163.287 76.2454 163.298 76.1688 163.293 76.0923C163.276 75.9199 163.197 75.7598 163.07 75.6421C162.942 75.5244 162.777 75.4573 162.603 75.4535Z" fill="#3C8AFF"/>
<path d="M165.69 107.675C165.699 107.827 165.678 107.98 165.626 108.124C165.574 108.267 165.493 108.398 165.388 108.509C165.283 108.62 165.156 108.708 165.016 108.768C164.876 108.828 164.724 108.858 164.572 108.857C164.249 108.858 163.938 108.736 163.701 108.517C163.464 108.298 163.318 107.997 163.294 107.675C163.283 107.523 163.303 107.37 163.354 107.226C163.405 107.082 163.485 106.95 163.589 106.839C163.694 106.728 163.821 106.64 163.961 106.58C164.102 106.521 164.253 106.491 164.406 106.493C164.73 106.491 165.043 106.611 165.281 106.831C165.519 107.05 165.665 107.352 165.69 107.675Z" fill="white"/>
<path d="M164.553 109.413C164.092 109.408 163.651 109.229 163.316 108.913C162.981 108.597 162.777 108.167 162.745 107.707C162.728 107.474 162.759 107.241 162.837 107.021C162.915 106.801 163.038 106.599 163.198 106.43C163.355 106.264 163.545 106.133 163.755 106.044C163.965 105.955 164.191 105.91 164.419 105.912C164.879 105.917 165.321 106.096 165.656 106.412C165.991 106.728 166.194 107.158 166.226 107.618C166.242 107.846 166.211 108.075 166.133 108.291C166.056 108.506 165.935 108.704 165.778 108.87C165.621 109.036 165.43 109.168 165.22 109.257C165.009 109.346 164.782 109.391 164.553 109.387V109.413ZM164.419 107.049C164.342 107.049 164.267 107.064 164.196 107.093C164.126 107.123 164.063 107.167 164.01 107.222C163.958 107.278 163.918 107.345 163.893 107.418C163.868 107.49 163.858 107.567 163.863 107.643C163.88 107.816 163.96 107.976 164.087 108.094C164.214 108.211 164.38 108.278 164.553 108.282C164.629 108.283 164.704 108.269 164.774 108.239C164.844 108.209 164.907 108.166 164.96 108.11C165.012 108.055 165.052 107.99 165.078 107.918C165.103 107.846 165.114 107.77 165.108 107.694C165.093 107.52 165.013 107.357 164.884 107.238C164.756 107.119 164.587 107.052 164.412 107.049H164.419Z" fill="#3C8AFF"/>
<path d="M167.485 139.251C167.496 139.404 167.475 139.557 167.423 139.701C167.372 139.845 167.291 139.976 167.186 140.087C167.081 140.198 166.954 140.287 166.813 140.346C166.672 140.406 166.52 140.435 166.367 140.433C166.05 140.426 165.747 140.301 165.517 140.083C165.286 139.864 165.146 139.568 165.122 139.251C165.111 139.099 165.132 138.947 165.183 138.803C165.235 138.66 165.315 138.528 165.419 138.417C165.524 138.306 165.65 138.218 165.79 138.158C165.93 138.098 166.081 138.068 166.233 138.069C166.552 138.075 166.857 138.199 167.088 138.418C167.32 138.636 167.462 138.934 167.485 139.251Z" fill="white"/>
<path d="M166.368 141.014C165.906 141.007 165.465 140.827 165.13 140.51C164.795 140.193 164.592 139.762 164.56 139.302C164.542 139.069 164.573 138.835 164.651 138.615C164.729 138.395 164.852 138.194 165.013 138.024C165.169 137.858 165.358 137.726 165.569 137.637C165.779 137.548 166.005 137.503 166.233 137.507C166.694 137.512 167.135 137.691 167.47 138.007C167.805 138.323 168.009 138.753 168.041 139.213C168.063 139.445 168.034 139.68 167.957 139.9C167.879 140.121 167.756 140.322 167.594 140.49C167.437 140.657 167.247 140.79 167.035 140.88C166.824 140.97 166.597 141.016 166.368 141.014ZM166.233 138.651C166.158 138.649 166.082 138.663 166.012 138.692C165.942 138.72 165.878 138.763 165.825 138.817C165.722 138.932 165.669 139.084 165.678 139.238C165.696 139.41 165.776 139.569 165.903 139.687C166.03 139.804 166.195 139.872 166.368 139.877C166.444 139.878 166.519 139.862 166.59 139.833C166.66 139.803 166.724 139.76 166.776 139.705C166.83 139.649 166.871 139.583 166.896 139.51C166.922 139.437 166.931 139.36 166.923 139.283C166.905 139.112 166.824 138.953 166.698 138.837C166.571 138.72 166.406 138.654 166.233 138.651Z" fill="#E0E0E0"/>
<path d="M169.298 170.872C169.309 171.024 169.288 171.177 169.236 171.32C169.185 171.464 169.105 171.595 169.001 171.706C168.896 171.817 168.77 171.905 168.63 171.965C168.49 172.025 168.339 172.055 168.187 172.054C167.864 172.055 167.552 171.934 167.315 171.714C167.078 171.495 166.933 171.194 166.909 170.872C166.898 170.72 166.919 170.567 166.971 170.423C167.023 170.279 167.103 170.147 167.209 170.036C167.314 169.925 167.441 169.837 167.581 169.778C167.722 169.718 167.874 169.688 168.027 169.691C168.349 169.691 168.658 169.813 168.894 170.032C169.13 170.252 169.274 170.551 169.298 170.872Z" fill="white"/>
<path d="M168.188 172.611C167.727 172.605 167.286 172.427 166.951 172.111C166.616 171.795 166.412 171.364 166.38 170.905C166.358 170.672 166.387 170.438 166.465 170.218C166.542 169.997 166.665 169.796 166.827 169.627C166.984 169.46 167.175 169.328 167.386 169.237C167.597 169.147 167.824 169.102 168.054 169.104C168.515 169.11 168.956 169.29 169.291 169.607C169.626 169.924 169.829 170.356 169.861 170.816C169.876 171.044 169.844 171.273 169.767 171.488C169.689 171.703 169.568 171.899 169.411 172.066C169.254 172.232 169.064 172.364 168.853 172.453C168.643 172.542 168.416 172.587 168.188 172.585V172.611ZM168.054 170.247C167.977 170.247 167.902 170.262 167.831 170.291C167.761 170.321 167.698 170.365 167.645 170.42C167.591 170.475 167.55 170.541 167.525 170.614C167.499 170.687 167.49 170.764 167.498 170.841C167.515 171.014 167.595 171.174 167.722 171.291C167.849 171.409 168.015 171.476 168.188 171.48C168.264 171.481 168.339 171.467 168.409 171.439C168.479 171.41 168.543 171.368 168.597 171.314C168.699 171.198 168.752 171.047 168.744 170.892C168.728 170.719 168.649 170.557 168.522 170.438C168.394 170.319 168.228 170.251 168.054 170.247Z" fill="#E0E0E0"/>
</svg>
