<svg width="147" height="155" viewBox="0 0 147 155" fill="none" xmlns="http://www.w3.org/2000/svg">
<path d="M67.1433 41.6636L59.2038 45.8101C58.8611 45.9618 58.4734 45.9774 58.1196 45.8537C57.7658 45.73 57.4723 45.4762 57.2988 45.144C57.1253 44.8117 57.0847 44.4259 57.1853 44.0648C57.286 43.7037 57.5203 43.3945 57.8406 43.1999L65.7801 39.0534C66.1229 38.9017 66.5105 38.8861 66.8644 39.0098C67.2182 39.1335 67.5117 39.3873 67.6852 39.7195C67.8587 40.0518 67.8993 40.4376 67.7986 40.7987C67.698 41.1597 67.4637 41.469 67.1433 41.6636Z" fill="#1E75F7"/>
<g opacity="0.7">
<path d="M67.1433 41.6636L59.2038 45.8101C58.8611 45.9618 58.4734 45.9774 58.1196 45.8537C57.7658 45.73 57.4723 45.4762 57.2988 45.144C57.1253 44.8117 57.0847 44.4259 57.1853 44.0648C57.286 43.7037 57.5203 43.3945 57.8406 43.1999L65.7801 39.0534C66.1229 38.9017 66.5105 38.8861 66.8644 39.0098C67.2182 39.1335 67.5117 39.3873 67.6852 39.7195C67.8587 40.0518 67.8993 40.4376 67.7986 40.7987C67.698 41.1597 67.4637 41.469 67.1433 41.6636Z" fill="white"/>
</g>
<path d="M110.247 53.2137L109.063 125.129C109.055 125.574 108.871 125.997 108.551 126.306C108.231 126.614 107.802 126.784 107.357 126.776L40.8548 125.665C40.4103 125.657 39.9872 125.473 39.6784 125.153C39.3697 124.833 39.2004 124.404 39.2078 123.959L40.752 30.4382C40.7602 29.9937 40.9445 29.5706 41.2643 29.2618C41.5842 28.953 42.0135 28.7838 42.458 28.7912L87.2369 29.5405L110.247 53.2137Z" fill="#1E75F7"/>
<path d="M99.7249 74.7183L50.1426 74.0488L50.1011 77.1224L99.6834 77.7918L99.7249 74.7183Z" fill="#1E75F7"/>
<path d="M99.5588 87.2739L49.9766 86.6045L49.9351 89.678L99.5173 90.3475L99.5588 87.2739Z" fill="#1E75F7"/>
<path d="M99.3889 99.8374L49.8066 99.168L49.7651 102.242L99.3474 102.911L99.3889 99.8374Z" fill="#1E75F7"/>
<path d="M87.2927 29.4764L86.9386 51.1615C86.9312 51.606 87.1005 52.0353 87.4092 52.3552C87.718 52.675 88.1411 52.8593 88.5856 52.8675L110.21 53.2254L87.2927 29.4764Z" fill="#1E75F7"/>
<path opacity="0.7" d="M87.2927 29.4764L86.9386 51.1615C86.9312 51.606 87.1005 52.0353 87.4092 52.3552C87.718 52.675 88.1411 52.8593 88.5856 52.8675L110.21 53.2254L87.2927 29.4764Z" fill="white"/>
<path d="M117.196 47.1848L116.018 119.097C116.01 119.542 115.826 119.965 115.506 120.274C115.186 120.582 114.757 120.752 114.312 120.744L47.8209 119.655C47.3759 119.648 46.9519 119.465 46.642 119.146C46.3322 118.826 46.1618 118.397 46.1685 117.952L47.7041 24.4147C47.7109 23.9697 47.8942 23.5457 48.2136 23.2359C48.5329 22.926 48.9623 22.7556 49.4073 22.7623L94.2134 23.4974L117.196 47.1848Z" fill="#1E75F7"/>
<g opacity="0.5">
<path d="M117.196 47.1848L116.018 119.097C116.01 119.542 115.826 119.965 115.506 120.274C115.186 120.582 114.757 120.752 114.312 120.744L47.8209 119.655C47.3759 119.648 46.9519 119.465 46.642 119.146C46.3322 118.826 46.1618 118.397 46.1685 117.952L47.7041 24.4147C47.7109 23.9697 47.8942 23.5457 48.2136 23.2359C48.5329 22.926 48.9623 22.7556 49.4073 22.7623L94.2134 23.4974L117.196 47.1848Z" fill="white"/>
</g>
<path d="M105.363 68.6571L58.4272 68.0283C58.2537 68.0254 58.0813 68.0568 57.9199 68.1207C57.7586 68.1846 57.6115 68.2799 57.4871 68.4009C57.3627 68.522 57.2635 68.6664 57.1952 68.826C57.1269 68.9855 57.0908 69.157 57.0891 69.3306L57.0829 69.7569C57.08 69.9309 57.1115 70.1038 57.1756 70.2656C57.2397 70.4274 57.3351 70.575 57.4563 70.6998C57.5776 70.8246 57.7223 70.9243 57.8822 70.993C58.0421 71.0618 58.2139 71.0983 58.388 71.1005L105.323 71.7293C105.673 71.7336 106.011 71.599 106.262 71.3548C106.512 71.1107 106.656 70.777 106.661 70.427L106.665 69.9952C106.668 69.8217 106.636 69.6493 106.572 69.4879C106.508 69.3266 106.413 69.1795 106.292 69.0551C106.171 68.9307 106.027 68.8315 105.867 68.7632C105.708 68.6949 105.536 68.6588 105.363 68.6571Z" fill="#1E75F7"/>
<path d="M105.19 81.2278L58.2513 80.594C57.5214 80.5842 56.9217 81.1679 56.9118 81.8978L56.906 82.3281C56.8962 83.058 57.4799 83.6577 58.2098 83.6676L105.149 84.3013C105.879 84.3112 106.478 83.7275 106.488 82.9975L106.494 82.5673C106.504 81.8373 105.92 81.2376 105.19 81.2278Z" fill="#1E75F7"/>
<path d="M105.026 93.7942L58.0872 93.1604C57.3573 93.1506 56.7576 93.7343 56.7478 94.4642L56.742 94.8945C56.7321 95.6244 57.3158 96.2241 58.0457 96.234L104.985 96.8677C105.715 96.8776 106.314 96.2939 106.324 95.564L106.33 95.1337C106.34 94.4037 105.756 93.804 105.026 93.7942Z" fill="#1E75F7"/>
<path d="M94.2517 23.4499L93.8921 45.1379C93.8879 45.3579 93.9274 45.5767 94.0082 45.7814C94.089 45.9861 94.2096 46.1728 94.363 46.3306C94.5163 46.4885 94.6995 46.6144 94.9018 46.7011C95.1041 46.7877 95.3216 46.8335 95.5417 46.8356L117.166 47.1935L94.2517 23.4499Z" fill="#1E75F7"/>
<path opacity="0.7" d="M94.2517 23.4499L93.8921 45.1379C93.8879 45.3579 93.9274 45.5767 94.0082 45.7814C94.089 45.9861 94.2096 46.1728 94.363 46.3306C94.5163 46.4885 94.6995 46.6144 94.9018 46.7011C95.1041 46.7877 95.3216 46.8335 95.5417 46.8356L117.166 47.1935L94.2517 23.4499Z" fill="white"/>
</svg>
