<svg width="21" height="28" viewBox="0 0 21 28" fill="none" xmlns="http://www.w3.org/2000/svg">
<path d="M12.226 7.42295V0H1.30993C0.584011 0 0 0.584011 0 1.30993V26.6353C0 27.3612 0.584011 27.9452 1.30993 27.9452H19.649C20.3749 27.9452 20.9589 27.3612 20.9589 26.6353V8.73288H13.536C12.8155 8.73288 12.226 8.14341 12.226 7.42295ZM15.9664 17.219L16.5837 17.8364C16.9249 18.1775 16.9249 18.7304 16.5837 19.0715L14.9518 20.7035L16.5925 22.3442C16.9336 22.6853 16.9336 23.2382 16.5925 23.5793L15.9752 24.1966C15.634 24.5377 15.0811 24.5377 14.74 24.1966L13.0993 22.5554L11.4586 24.1961C11.1175 24.5372 10.5646 24.5372 10.2235 24.1961L9.60616 23.5788C9.26504 23.2376 9.26504 22.6847 9.60616 22.3436L11.2469 20.7029L8.00914 17.4658H6.9863V20.0856C6.9863 20.5681 6.59551 20.9589 6.11301 20.9589H5.23973C4.75723 20.9589 4.36644 20.5681 4.36644 20.0856V11.3527C4.36644 10.8702 4.75723 10.4795 5.23973 10.4795H9.60616C11.5356 10.4795 13.0993 12.0432 13.0993 13.9726C13.0993 15.2945 12.3559 16.4315 11.2731 17.0247L13.0993 18.851L14.7313 17.219C15.0724 16.8779 15.6253 16.8779 15.9664 17.219ZM9.60616 14.8459H6.9863V13.0993H9.60616C10.0876 13.0993 10.4795 13.4912 10.4795 13.9726C10.4795 14.454 10.0876 14.8459 9.60616 14.8459ZM20.9589 6.65336V6.9863H13.9726V0H14.3055C14.6549 0 14.9878 0.136451 15.2334 0.382063L20.5768 5.73095C20.8225 5.97656 20.9589 6.3095 20.9589 6.65336Z" fill="#3C8AFF"/>
</svg>
