<svg width="215" height="215" viewBox="0 0 215 215" fill="none" xmlns="http://www.w3.org/2000/svg">
<rect width="215" height="215" rx="107.5" fill="#F6FAFF"/>
<mask id="mask0_1652_17501" style="mask-type:alpha" maskUnits="userSpaceOnUse" x="0" y="0" width="215" height="215">
<rect width="215" height="215" rx="107.5" fill="#E2EDFF"/>
</mask>
<g mask="url(#mask0_1652_17501)">
<path d="M113.707 174.359V98.3369H112.589V174.359H113.707Z" fill="#E6E6E6"/>
<path d="M147.752 98.3369H112.586V99.6166H147.752V98.3369Z" fill="#E6E6E6"/>
<path d="M144.114 251.557H50.9555C49.2324 251.571 47.5247 251.263 45.9398 250.652C44.3549 250.04 42.9271 249.139 41.7461 248.004C40.5651 246.869 39.6566 245.526 39.0776 244.058C38.4987 242.591 38.2618 241.031 38.382 239.476L49.7031 64.378C49.9613 61.1279 51.5584 58.0836 54.1786 55.8468C56.7988 53.61 60.2515 52.3434 63.8544 52.2974H157.034C158.757 52.283 160.465 52.5912 162.05 53.2026C163.635 53.814 165.062 54.7154 166.243 55.8501C167.424 56.9848 168.333 58.3282 168.912 59.7958C169.491 61.2634 169.728 62.8235 169.608 64.378L158.251 239.476C157.993 242.724 156.398 245.767 153.781 248.003C151.164 250.24 147.714 251.508 144.114 251.557Z" fill="#3C8AFF"/>
<path opacity="0.3" d="M144.114 251.557H50.9555C49.2324 251.571 47.5247 251.263 45.9398 250.652C44.3549 250.04 42.9271 249.139 41.7461 248.004C40.5651 246.869 39.6566 245.526 39.0776 244.058C38.4987 242.591 38.2618 241.031 38.382 239.476L49.7031 64.378C49.9613 61.1279 51.5584 58.0836 54.1786 55.8468C56.7988 53.61 60.2515 52.3434 63.8544 52.2974H157.034C158.757 52.283 160.465 52.5912 162.05 53.2026C163.635 53.814 165.062 54.7154 166.243 55.8501C167.424 56.9848 168.333 58.3282 168.912 59.7958C169.491 61.2634 169.728 62.8235 169.608 64.378L158.251 239.476C157.993 242.724 156.398 245.767 153.781 248.003C151.164 250.24 147.714 251.508 144.114 251.557Z" fill="white"/>
<path d="M143.56 248.05H52.9915C51.7809 248.061 50.581 247.845 49.4673 247.415C48.3535 246.986 47.35 246.353 46.52 245.556C45.6899 244.759 45.0511 243.816 44.644 242.785C44.2368 241.754 44.0699 240.658 44.154 239.565L55.4751 65.2286C55.6565 62.9506 56.7735 60.8164 58.6065 59.2452C60.4395 57.6741 62.8559 56.7796 65.381 56.7376H155.95C157.161 56.7279 158.361 56.9448 159.474 57.3747C160.588 57.8046 161.592 58.4382 162.422 59.2356C163.252 60.033 163.89 60.9771 164.297 62.0084C164.704 63.0398 164.871 64.1361 164.787 65.2286L153.466 239.565C153.285 241.843 152.167 243.976 150.334 245.546C148.501 247.117 146.085 248.01 143.56 248.05Z" fill="#3C8AFF"/>
<path d="M142.588 247.116H52.0188C50.8079 247.126 49.6079 246.909 48.4941 246.479C47.3803 246.049 46.3769 245.415 45.547 244.618C44.717 243.821 44.0784 242.877 43.6713 241.845C43.2641 240.814 43.0973 239.717 43.1813 238.625L54.5024 64.2882C54.6839 62.0102 55.8008 59.8759 57.6338 58.3048C59.4668 56.7337 61.8832 55.8392 64.4083 55.7972H154.977C156.188 55.7875 157.388 56.0044 158.502 56.4343C159.616 56.8642 160.619 57.4977 161.449 58.2952C162.279 59.0926 162.918 60.0366 163.325 61.068C163.732 62.0993 163.899 63.1957 163.815 64.2882L152.494 238.625C152.312 240.903 151.195 243.037 149.362 244.608C147.529 246.18 145.113 247.074 142.588 247.116Z" fill="white"/>
<path opacity="0.1" d="M139.938 240.634H55.4754C54.7271 240.64 53.9854 240.506 53.2971 240.241C52.6088 239.975 51.9886 239.584 51.4756 239.091C50.9626 238.598 50.5679 238.015 50.3162 237.377C50.0645 236.74 49.9612 236.062 50.013 235.387L54.7678 162.667C54.8793 161.256 55.5721 159.934 56.7093 158.962C57.8465 157.991 59.3453 157.441 60.9095 157.42H145.337C146.085 157.414 146.827 157.548 147.515 157.814C148.203 158.079 148.823 158.471 149.336 158.964C149.849 159.456 150.244 160.04 150.496 160.677C150.748 161.314 150.851 161.992 150.799 162.667L146.08 235.387C145.968 236.798 145.275 238.12 144.138 239.092C143.001 240.063 141.502 240.614 139.938 240.634Z" fill="#3C8AFF"/>
<path opacity="0.1" d="M121.179 68.7292H96.563C96.2955 68.7315 96.0304 68.6838 95.7843 68.589C95.5382 68.4941 95.3164 68.3543 95.133 68.1782C94.9495 68.0021 94.8084 67.7936 94.7184 67.5657C94.6285 67.3379 94.5916 67.0957 94.6101 66.8544C94.6491 66.3484 94.897 65.8741 95.3046 65.5256C95.7123 65.1772 96.2498 64.98 96.8107 64.9732H121.42C121.69 64.9672 121.959 65.0124 122.209 65.106C122.459 65.1997 122.685 65.3396 122.871 65.5168C123.058 65.694 123.202 65.9045 123.293 66.1349C123.384 66.3653 123.421 66.6103 123.401 66.8544C123.362 67.3631 123.111 67.8394 122.698 68.1873C122.286 68.5352 121.743 68.7288 121.179 68.7292Z" fill="#3C8AFF"/>
<path opacity="0.1" d="M130.974 138.915C146.132 125.603 147.167 104.333 133.285 91.4058C119.404 78.4789 95.8623 78.7908 80.7041 92.1023C65.5459 105.414 64.5111 126.684 78.3927 139.611C92.2743 152.538 115.816 152.226 130.974 138.915Z" fill="#3C8AFF"/>
<path d="M79.8169 137.763C76.7196 134.781 74.3371 131.253 72.8188 127.399C71.3004 123.545 70.679 119.449 70.9935 115.368H71.7011C71.3945 119.362 72.003 123.369 73.4884 127.14C74.9738 130.911 77.3041 134.364 80.3334 137.283L79.8169 137.763Z" fill="#3C8AFF"/>
<path d="M140.681 115.644L139.973 115.605C140.166 112.787 139.928 109.957 139.266 107.197L139.973 107.057C140.65 109.875 140.888 112.765 140.681 115.644Z" fill="#3C8AFF"/>
<path d="M137.214 101.631C135.482 98.1565 133.005 95.0276 129.926 92.4256C126.847 89.8235 123.228 87.8001 119.277 86.4726L119.525 85.8711C123.566 87.2259 127.268 89.2945 130.415 91.9563C133.563 94.6181 136.093 97.8199 137.858 101.375L137.214 101.631Z" fill="#3C8AFF"/>
<path d="M127.74 135.903C140.95 124.303 141.853 105.768 129.758 94.5038C117.662 83.24 97.1478 83.513 83.938 95.1135C70.7282 106.714 69.825 125.249 81.9207 136.513C94.0165 147.777 114.531 147.504 127.74 135.903Z" fill="#3C8AFF"/>
<path d="M102.238 119.483C103.795 119.169 104.524 117.966 104.856 116.597C104.891 116.45 104.92 116.309 104.948 116.168V116.04C105.033 115.47 105.08 114.895 105.09 114.319C103.583 114.184 102.183 113.553 101.157 112.545C100.132 111.538 99.552 110.224 99.5281 108.855C99.45 106.139 100.116 103.449 101.467 101.023C101.119 101.064 100.789 101.188 100.512 101.381C100.485 101.4 100.454 101.413 100.421 101.419C100.388 101.426 100.354 101.426 100.321 101.42C100.259 101.41 100.204 101.38 100.165 101.336C100.127 101.288 100.111 101.229 100.121 101.171C100.13 101.112 100.163 101.059 100.214 101.023C100.654 100.722 101.191 100.56 101.743 100.562C101.849 100.409 101.948 100.249 102.054 100.101C101.601 100.101 101.163 100.101 100.738 100.101C101.205 97.1453 107.495 94.6626 111.783 96.9021C113.694 97.2476 116.849 99.7175 116.849 99.7175C116.913 101.291 116.863 102.866 116.701 104.433C116.418 107.108 115.717 110.25 114.012 112.003C114.436 111.106 114.592 110.124 114.465 109.155C114.056 109.521 113.549 109.783 112.993 109.917C112.791 110.309 112.555 110.686 112.286 111.043C111.62 113.788 111.146 117.442 112.158 119.547C113.071 119.598 113.955 119.675 114.797 119.758L115.003 119.79C115.558 119.495 116.092 119.168 116.602 118.811C122.97 114.332 116.213 109.072 117.805 104.254C119.397 99.436 118.052 97.606 113.701 97.4524C115.505 94.8482 104.042 90.6891 99.0045 98.7705C94.4407 106.097 92.9689 109.757 94.6105 115.484C95.2275 117.355 96.6257 118.937 98.5092 119.892C98.8299 119.813 99.1561 119.753 99.4856 119.713C100.384 119.636 101.318 119.547 102.238 119.483Z" fill="#263238"/>
<path d="M92.3407 130.745C92.0811 130.329 91.8449 129.902 91.6332 129.465C91.152 130.745 90.678 132.024 90.218 133.304C89.7794 134.456 89.3619 135.608 88.9232 136.708L88.2651 138.263L87.9821 138.903C87.8831 139.076 87.9821 138.973 87.9821 139.024C87.6805 139.342 87.3464 139.633 86.9845 139.895C86.9066 139.965 86.8076 140.029 86.7227 140.093C88.6805 141.287 90.787 142.269 92.9988 143.017C93.0483 140.093 93.4446 137.054 93.8691 136.241C91.3219 134.641 91.7039 132.92 92.3407 130.745Z" fill="#FFC3BD"/>
<path d="M94.8175 122.112L94.6406 122.336C94.6972 122.259 94.7609 122.189 94.8246 122.119L94.8175 122.112Z" fill="#263238"/>
<path d="M93.1812 126.4C93.1708 124.991 93.6429 123.614 94.5326 122.458C93.176 124.388 92.0607 126.448 91.207 128.601C91.207 128.601 91.3344 128.94 91.6033 129.471C91.815 129.908 92.0511 130.335 92.3108 130.751C92.8154 129.342 93.1081 127.879 93.1812 126.4Z" fill="#263238"/>
<path d="M117.849 135.685C117.01 134.57 116.265 133.4 115.62 132.185C115.408 132.287 115.189 132.389 114.962 132.479C112.839 130.451 111.028 128.813 111.028 128.813C108.382 123.822 110.016 120.981 115.033 119.823C115.811 119.967 116.554 120.238 117.226 120.622C116.565 120.202 115.804 119.926 115.005 119.816L114.799 119.784C113.957 119.701 113.073 119.624 112.16 119.573C112.358 120.04 107.816 125.972 104.964 126.912C103.797 124.25 100.521 124.071 100.521 124.071C100.521 124.071 97.464 123.502 96.5158 125.242C97.1385 121.646 100.966 119.752 102.24 119.483C101.32 119.554 100.386 119.643 99.4876 119.746C99.1581 119.786 98.8319 119.846 98.5112 119.925C97.0551 120.286 95.764 121.057 94.8247 122.126C94.7611 122.196 94.6974 122.267 94.6408 122.344L94.5347 122.465C93.6449 123.621 93.1728 124.998 93.1832 126.407C93.1187 127.882 92.8355 129.344 92.3412 130.751C91.7044 132.901 91.3223 134.648 93.82 136.248C93.3955 137.06 92.9992 140.087 92.9497 143.024C96.4661 144.203 100.188 144.801 103.938 144.79C108.74 144.783 113.484 143.843 117.849 142.032C117.727 139.65 117.749 137.265 117.913 134.885C117.891 135.141 117.863 135.422 117.849 135.685Z" fill="#263238"/>
<path d="M100.52 124.07C100.52 124.07 103.796 124.25 104.963 126.911C107.793 125.939 112.357 120.039 112.159 119.572C112.159 119.572 105.713 122.4 100.52 124.07Z" fill="white"/>
<path d="M102.255 119.483C100.982 119.759 97.1539 121.653 96.5312 125.242C97.4794 123.502 100.536 124.071 100.536 124.071C99.5455 120.706 102.255 119.483 102.255 119.483Z" fill="white"/>
<path d="M112.285 111.068C111.67 111.875 110.893 112.57 109.993 113.116C109.615 113.362 109.212 113.576 108.79 113.756C107.863 115.101 106.481 116.14 104.849 116.718V116.61C104.516 117.979 103.788 119.169 102.231 119.495C102.231 119.495 99.5209 120.724 100.497 124.09C105.698 122.42 112.137 119.611 112.137 119.611C111.146 117.473 111.62 113.813 112.285 111.068Z" fill="#FFC3BD"/>
<path d="M104.871 116.591C104.906 116.444 104.935 116.303 104.963 116.162C104.935 116.284 104.906 116.444 104.871 116.591Z" fill="#263238"/>
<path opacity="0.2" d="M104.871 116.591C104.906 116.444 104.935 116.303 104.963 116.162C104.935 116.284 104.906 116.444 104.871 116.591Z" fill="black"/>
<path d="M105.126 114.312C105.116 114.888 105.069 115.463 104.984 116.034C105.072 115.463 105.12 114.888 105.126 114.312Z" fill="#263238"/>
<path opacity="0.2" d="M105.126 114.312C105.116 114.888 105.069 115.463 104.984 116.034C105.072 115.463 105.12 114.888 105.126 114.312Z" fill="black"/>
<path d="M108.793 113.725C107.654 114.218 106.385 114.418 105.128 114.3C105.122 114.876 105.075 115.451 104.987 116.022V116.15C104.987 116.29 104.93 116.431 104.895 116.578V116.687C106.511 116.102 107.877 115.064 108.793 113.725Z" fill="#FFC3BD"/>
<path opacity="0.2" d="M108.793 113.725C107.654 114.218 106.385 114.418 105.128 114.3C105.122 114.876 105.075 115.451 104.987 116.022V116.15C104.987 116.29 104.93 116.431 104.895 116.578V116.687C106.511 116.102 107.877 115.064 108.793 113.725Z" fill="black"/>
<path d="M108.791 113.724C109.212 113.545 109.615 113.331 109.993 113.084C110.893 112.538 111.671 111.844 112.286 111.037C112.555 110.68 112.792 110.303 112.993 109.911C112.859 109.911 112.725 109.975 112.597 109.988C111.416 110.084 111.083 108.881 111.621 107.806C111.803 107.442 112.041 107.104 112.328 106.801C112.02 105.888 112.095 104.903 112.541 104.037C111.465 102.04 110.326 100.198 110.22 98.8604C107.572 99.6004 104.825 100.007 102.054 100.07C101.948 100.217 101.849 100.377 101.743 100.53C101.983 100.53 102.222 100.562 102.451 100.626C102.481 100.636 102.508 100.652 102.531 100.671C102.554 100.691 102.573 100.714 102.586 100.74C102.6 100.767 102.607 100.795 102.608 100.824C102.609 100.852 102.604 100.881 102.592 100.908C102.57 100.963 102.525 101.007 102.467 101.032C102.409 101.057 102.342 101.061 102.281 101.042C102.027 100.972 101.758 100.955 101.495 100.991C100.163 103.419 99.514 106.107 99.6063 108.817C99.6302 110.186 100.21 111.499 101.236 112.507C102.261 113.515 103.661 114.146 105.168 114.281C106.409 114.397 107.661 114.205 108.791 113.724ZM107.213 101.157C107.598 101.226 107.959 101.378 108.265 101.601C108.571 101.824 108.812 102.111 108.967 102.437C108.995 102.491 108.998 102.552 108.977 102.608C108.956 102.664 108.912 102.711 108.854 102.738C108.795 102.76 108.729 102.76 108.67 102.738C108.638 102.73 108.609 102.715 108.584 102.695C108.56 102.675 108.541 102.651 108.529 102.623C108.4 102.364 108.204 102.138 107.958 101.963C107.711 101.788 107.422 101.67 107.114 101.618C107.05 101.609 106.992 101.578 106.953 101.531C106.914 101.485 106.895 101.427 106.901 101.369C106.904 101.336 106.915 101.304 106.933 101.276C106.951 101.247 106.976 101.222 107.006 101.203C107.035 101.184 107.069 101.172 107.105 101.166C107.141 101.16 107.178 101.162 107.213 101.17V101.157ZM106.965 104.318C107.083 104.399 107.17 104.51 107.215 104.638C107.259 104.765 107.258 104.902 107.213 105.029C107.135 105.4 106.852 105.668 106.583 105.611C106.314 105.553 106.158 105.227 106.236 104.856C106.275 104.668 106.382 104.497 106.54 104.37C106.32 104.264 106.147 104.092 106.052 103.883L106.965 104.318ZM101.163 104.05C101.201 103.864 101.305 103.696 101.46 103.57C101.243 103.459 101.074 103.285 100.979 103.077L101.906 103.506C102.02 103.589 102.104 103.701 102.148 103.827C102.193 103.953 102.194 104.089 102.154 104.216C102.069 104.587 101.793 104.856 101.524 104.805C101.255 104.753 101.085 104.434 101.163 104.062V104.05ZM102.805 107.159C102.542 107.173 102.28 107.135 102.035 107.048C101.791 106.961 101.57 106.826 101.389 106.654C102.147 106.033 102.809 105.323 103.356 104.542L102.805 107.159ZM104.17 108.874C104.139 108.867 104.112 108.849 104.095 108.824C104.077 108.799 104.072 108.769 104.078 108.74C104.085 108.712 104.104 108.688 104.13 108.672C104.157 108.656 104.189 108.651 104.22 108.657C104.73 108.756 105.26 108.745 105.765 108.625C106.27 108.505 106.737 108.279 107.128 107.966C107.139 107.955 107.152 107.947 107.167 107.941C107.182 107.935 107.198 107.932 107.214 107.932C107.23 107.931 107.246 107.934 107.261 107.939C107.276 107.944 107.289 107.952 107.301 107.962C107.313 107.972 107.322 107.985 107.328 107.998C107.335 108.011 107.338 108.026 107.339 108.04C107.339 108.055 107.336 108.069 107.33 108.083C107.325 108.096 107.316 108.109 107.305 108.119C106.647 108.667 105.779 108.961 104.885 108.938C104.645 108.936 104.407 108.919 104.17 108.887V108.874Z" fill="#FFC3BD"/>
<path d="M113.496 106.045C113.199 105.406 112.859 104.721 112.513 104.081C112.067 104.947 111.991 105.932 112.3 106.845C112.614 106.488 113.027 106.212 113.496 106.045Z" fill="#263238"/>
<path d="M106.527 104.388C106.369 104.515 106.262 104.686 106.223 104.874C106.145 105.246 106.301 105.585 106.57 105.629C106.839 105.674 107.122 105.418 107.2 105.047C107.245 104.92 107.246 104.783 107.202 104.656C107.157 104.529 107.07 104.417 106.952 104.337C106.892 104.378 106.822 104.405 106.747 104.413C106.673 104.422 106.597 104.414 106.527 104.388Z" fill="#263238"/>
<path d="M102.176 104.235C102.217 104.107 102.215 103.972 102.171 103.846C102.127 103.719 102.043 103.608 101.929 103.524C101.867 103.565 101.796 103.592 101.721 103.602C101.645 103.612 101.569 103.605 101.497 103.582C101.342 103.708 101.238 103.877 101.2 104.062C101.122 104.433 101.278 104.772 101.546 104.823C101.815 104.875 102.056 104.606 102.176 104.235Z" fill="#263238"/>
<path d="M101.892 103.524L100.965 103.096C101.06 103.304 101.229 103.478 101.446 103.588C101.52 103.613 101.6 103.62 101.678 103.608C101.756 103.597 101.829 103.568 101.892 103.524Z" fill="#263238"/>
<path d="M101.398 106.686C101.579 106.858 101.8 106.993 102.044 107.08C102.289 107.167 102.551 107.205 102.814 107.191L103.373 104.574C102.823 105.355 102.159 106.065 101.398 106.686Z" fill="#ED847E"/>
<path d="M107.293 107.966C107.269 107.945 107.238 107.934 107.205 107.934C107.172 107.934 107.14 107.945 107.116 107.966C106.727 108.278 106.263 108.502 105.76 108.622C105.257 108.743 104.731 108.754 104.222 108.657C104.191 108.651 104.159 108.657 104.133 108.672C104.106 108.688 104.088 108.712 104.081 108.74C104.074 108.769 104.08 108.799 104.097 108.824C104.114 108.849 104.141 108.867 104.173 108.874C104.407 108.911 104.643 108.932 104.88 108.938C105.774 108.961 106.642 108.667 107.3 108.119C107.32 108.098 107.33 108.07 107.329 108.041C107.328 108.013 107.315 107.986 107.293 107.966Z" fill="#263238"/>
<path d="M113.497 106.046C113.027 106.213 112.615 106.489 112.301 106.846C112.014 107.149 111.776 107.487 111.594 107.85C111.056 108.925 111.388 110.128 112.57 110.032C112.697 110.032 112.832 109.981 112.966 109.955C113.522 109.822 114.029 109.56 114.438 109.194C114.29 108.11 113.973 107.05 113.497 106.046Z" fill="#FFC3BD"/>
<path d="M110.357 97.9325C110.399 97.0111 110.979 96.7871 111.772 96.9279C107.484 94.6628 101.194 97.1455 100.727 100.127C101.151 100.127 101.59 100.127 102.043 100.127C104.813 100.065 107.56 99.6579 110.208 98.9179C110.167 98.5834 110.218 98.2449 110.357 97.9325Z" fill="#263238"/>
<path d="M110.355 97.9319C110.221 98.2364 110.17 98.5656 110.207 98.8917C110.313 100.248 111.452 102.091 112.528 104.068C112.874 104.708 113.235 105.348 113.511 106.033C113.987 107.037 114.304 108.096 114.452 109.181C114.58 110.149 114.423 111.131 113.999 112.028C115.705 110.275 116.405 107.133 116.688 104.458C116.85 102.891 116.9 101.316 116.837 99.7427C116.837 99.7427 113.681 97.2728 111.77 96.9273C110.978 96.7865 110.398 97.0105 110.355 97.9319Z" fill="#263238"/>
<path d="M107.128 101.612C107.436 101.663 107.726 101.782 107.972 101.957C108.218 102.132 108.414 102.358 108.543 102.616C108.555 102.644 108.574 102.669 108.599 102.689C108.623 102.709 108.653 102.724 108.684 102.732C108.743 102.754 108.809 102.754 108.868 102.732C108.926 102.704 108.97 102.658 108.991 102.602C109.013 102.546 109.009 102.485 108.982 102.431C108.826 102.105 108.585 101.818 108.279 101.595C107.973 101.372 107.612 101.22 107.227 101.151C107.162 101.144 107.097 101.16 107.045 101.196C106.994 101.232 106.96 101.285 106.951 101.343C106.938 101.4 106.948 101.459 106.981 101.509C107.014 101.559 107.066 101.595 107.128 101.612Z" fill="#263238"/>
<path d="M102.241 101.074C102.302 101.093 102.368 101.089 102.426 101.064C102.485 101.039 102.53 100.995 102.552 100.94C102.563 100.913 102.569 100.885 102.568 100.856C102.567 100.827 102.559 100.799 102.546 100.773C102.533 100.746 102.514 100.723 102.491 100.703C102.468 100.684 102.44 100.668 102.41 100.659C102.181 100.594 101.943 100.562 101.703 100.563C101.151 100.561 100.614 100.722 100.175 101.023C100.123 101.06 100.09 101.113 100.081 101.171C100.071 101.229 100.087 101.289 100.125 101.337C100.164 101.381 100.219 101.41 100.281 101.42C100.314 101.426 100.348 101.426 100.381 101.42C100.414 101.413 100.445 101.4 100.472 101.382C100.75 101.188 101.079 101.064 101.427 101.023C101.699 100.983 101.977 101.001 102.241 101.074Z" fill="#263238"/>
<path d="M106.526 104.388C106.595 104.414 106.671 104.422 106.746 104.413C106.82 104.405 106.891 104.378 106.95 104.337L106.023 103.908C106.123 104.117 106.301 104.287 106.526 104.388Z" fill="#263238"/>
<path d="M117.85 135.684C117.85 135.422 117.892 135.14 117.907 134.871C117.51 134.302 117.107 133.726 116.69 133.157L115.876 132.062L115.621 132.184C116.266 133.4 117.011 134.57 117.85 135.684Z" fill="#263238"/>
<path opacity="0.2" d="M117.85 135.684C117.85 135.422 117.892 135.14 117.907 134.871C117.51 134.302 117.107 133.726 116.69 133.157L115.876 132.062L115.621 132.184C116.266 133.4 117.011 134.57 117.85 135.684Z" fill="black"/>
<path d="M119.949 140.982V141.084C122.771 139.705 125.371 137.983 127.676 135.965C127.289 134.933 126.835 133.923 126.317 132.939C125.63 131.601 124.868 130.296 124.032 129.029C123.324 127.929 122.574 126.879 121.803 125.83C121.095 127.167 119.086 130.386 115.895 132.043L116.708 133.137C117.126 133.707 117.529 134.283 117.925 134.852C118.272 135.351 118.633 135.857 118.923 136.356C119.468 137.22 119.977 138.09 120.338 138.915L120.267 139.35C120.182 139.881 120.076 140.425 119.949 140.982Z" fill="#FFC3BD"/>
<path d="M111.028 128.812C111.028 128.812 112.84 130.45 114.962 132.479C115.189 132.389 115.408 132.287 115.62 132.184L115.875 132.063C119.066 130.406 121.062 127.187 121.783 125.85C121.988 125.472 122.095 125.242 122.095 125.242C122.095 125.242 120.043 122.171 117.227 120.622C116.555 120.238 115.812 119.967 115.033 119.822C110.016 120.98 108.382 123.821 111.028 128.812Z" fill="#263238"/>
<path d="M144.954 64.6274H154.924C155.196 64.6232 155.457 64.5269 155.654 64.3576C155.852 64.1882 155.973 63.958 155.992 63.7124C156.001 63.5953 155.983 63.4779 155.939 63.3675C155.895 63.257 155.827 63.156 155.738 63.0707C155.649 62.9853 155.541 62.9176 155.422 62.8716C155.302 62.8257 155.174 62.8026 155.044 62.8038H145.067C144.796 62.8078 144.536 62.9031 144.339 63.0712C144.141 63.2392 144.02 63.4678 143.999 63.7124C143.989 63.8305 144.006 63.9491 144.05 64.0608C144.094 64.1724 144.163 64.2746 144.253 64.3607C144.343 64.4468 144.452 64.515 144.572 64.5609C144.693 64.6069 144.823 64.6295 144.954 64.6274Z" fill="#3C8AFF"/>
<path d="M144.75 67.7695H154.72C154.992 67.7653 155.253 67.6691 155.45 67.4997C155.648 67.3304 155.768 67.1002 155.788 66.8545C155.798 66.7369 155.78 66.6188 155.737 66.5076C155.694 66.3964 155.625 66.2946 155.536 66.2086C155.447 66.1225 155.339 66.0542 155.219 66.0079C155.099 65.9616 154.97 65.9383 154.84 65.9395H144.87C144.597 65.9421 144.334 66.0376 144.135 66.2071C143.936 66.3767 143.814 66.6077 143.795 66.8545C143.787 66.9722 143.806 67.09 143.85 67.2008C143.895 67.3116 143.964 67.413 144.054 67.4987C144.143 67.5844 144.251 67.6526 144.371 67.6992C144.49 67.7458 144.62 67.7697 144.75 67.7695Z" fill="#3C8AFF"/>
<path d="M64.0948 67.7695H74.0645C74.3375 67.7655 74.5991 67.6694 74.798 67.5002C74.9969 67.331 75.1188 67.1007 75.14 66.8545C75.1487 66.7366 75.1305 66.6184 75.0863 66.5071C75.0422 66.3959 74.9731 66.2942 74.8834 66.2083C74.7937 66.1224 74.6853 66.0541 74.5651 66.0079C74.4449 65.9616 74.3154 65.9383 74.1847 65.9395H64.2151C63.9423 65.9422 63.6806 66.0379 63.4825 66.2076C63.2844 66.3773 63.1645 66.6083 63.1467 66.8545C63.1379 66.9718 63.156 67.0896 63.1997 67.2003C63.2434 67.3111 63.3119 67.4125 63.4008 67.4984C63.4898 67.5842 63.5972 67.6525 63.7166 67.6992C63.836 67.7458 63.9648 67.7698 64.0948 67.7695Z" fill="#3C8AFF"/>
<path d="M144.543 70.9042H154.534C154.808 70.9016 155.07 70.8061 155.269 70.6366C155.469 70.4671 155.59 70.236 155.61 69.9892C155.617 69.8716 155.598 69.7537 155.554 69.6429C155.509 69.5321 155.44 69.4308 155.351 69.345C155.261 69.2593 155.153 69.1911 155.034 69.1445C154.914 69.0979 154.785 69.074 154.654 69.0742H144.664C144.391 69.0783 144.129 69.1743 143.93 69.3435C143.731 69.5127 143.609 69.743 143.588 69.9892C143.579 70.1071 143.598 70.2254 143.642 70.3366C143.686 70.4478 143.755 70.5495 143.845 70.6354C143.934 70.7214 144.043 70.7896 144.163 70.8358C144.283 70.8821 144.413 70.9054 144.543 70.9042Z" fill="#3C8AFF"/>
<path d="M131.441 185.702H71.1283C70.0019 185.712 68.8856 185.51 67.8494 185.111C66.8132 184.711 65.8797 184.122 65.1075 183.381C64.3353 182.639 63.7411 181.761 63.3623 180.802C62.9835 179.842 62.8283 178.823 62.9064 177.806C63.0761 175.683 64.12 173.694 65.8321 172.232C67.5441 170.77 69.8 169.942 72.1543 169.91H132.467C133.594 169.901 134.71 170.102 135.746 170.502C136.783 170.901 137.716 171.49 138.488 172.232C139.26 172.974 139.855 173.852 140.234 174.811C140.612 175.77 140.768 176.79 140.689 177.806C140.52 179.93 139.476 181.919 137.764 183.381C136.052 184.843 133.796 185.671 131.441 185.702Z" fill="white"/>
<path d="M130.069 206.927H69.7489C68.6225 206.934 67.5065 206.732 66.4708 206.331C65.4351 205.93 64.502 205.341 63.7301 204.599C62.9582 203.857 62.3641 202.979 61.985 202.02C61.6059 201.06 61.4499 200.041 61.527 199.024C61.7017 196.904 62.7478 194.92 64.4594 193.462C66.1709 192.004 68.4239 191.179 70.7749 191.148H131.095C132.221 191.138 133.338 191.34 134.374 191.739C135.41 192.139 136.344 192.728 137.116 193.469C137.888 194.211 138.482 195.089 138.861 196.048C139.24 197.008 139.395 198.027 139.317 199.044C139.142 201.165 138.096 203.15 136.385 204.609C134.674 206.067 132.421 206.894 130.069 206.927Z" fill="white"/>
<path d="M128.688 228.144H68.3744C67.248 228.154 66.1317 227.952 65.0955 227.553C64.0593 227.153 63.1258 226.564 62.3536 225.823C61.5813 225.081 60.9871 224.203 60.6083 223.244C60.2296 222.284 60.0743 221.264 60.1525 220.248C60.3221 218.124 61.3657 216.134 63.0776 214.671C64.7895 213.208 67.0454 212.379 69.4004 212.346H129.714C130.84 212.337 131.957 212.539 132.993 212.94C134.029 213.34 134.963 213.93 135.735 214.672C136.507 215.414 137.101 216.292 137.48 217.252C137.858 218.212 138.014 219.232 137.935 220.248C137.766 222.372 136.722 224.361 135.01 225.823C133.298 227.285 131.042 228.113 128.688 228.144Z" fill="white"/>
<path d="M75.8139 180.636C77.6502 179.024 77.7771 176.448 76.0973 174.884C74.4176 173.32 71.5673 173.359 69.7311 174.972C67.8948 176.584 67.7679 179.16 69.4477 180.724C71.1274 182.288 73.9777 182.249 75.8139 180.636Z" fill="#3C8AFF"/>
<path d="M72.2372 195.178L72.8316 197.207C72.8659 197.318 72.94 197.416 73.0424 197.486C73.1448 197.555 73.2697 197.592 73.3976 197.591H75.7538C75.8867 197.592 76.0155 197.632 76.1206 197.706C76.2257 197.779 76.3012 197.882 76.3357 197.998C76.3702 198.114 76.3618 198.237 76.3116 198.348C76.2615 198.46 76.1724 198.553 76.0581 198.614L74.0698 199.894C73.9568 199.962 73.8702 200.06 73.822 200.175C73.7737 200.29 73.7664 200.415 73.8009 200.534L74.3953 202.562C74.4305 202.679 74.4253 202.802 74.3804 202.916C74.3354 203.03 74.2529 203.128 74.144 203.198C74.0351 203.268 73.9051 203.306 73.7716 203.306C73.638 203.307 73.5075 203.271 73.3976 203.202L71.5721 201.922C71.4685 201.857 71.3449 201.821 71.2183 201.821C71.0917 201.821 70.9681 201.857 70.8645 201.922L68.8763 203.202C68.7721 203.277 68.6431 203.318 68.5099 203.319C68.3768 203.32 68.2472 203.28 68.142 203.206C68.0367 203.133 67.9619 203.029 67.9296 202.912C67.8972 202.795 67.9092 202.672 67.9635 202.562L68.8196 200.534C68.8722 200.424 68.8826 200.301 68.8493 200.185C68.816 200.07 68.7408 199.967 68.6357 199.894L66.8102 198.614C66.7097 198.536 66.6383 198.432 66.6057 198.316C66.5731 198.2 66.581 198.077 66.6282 197.965C66.6754 197.853 66.7596 197.757 66.8695 197.69C66.9793 197.623 67.1093 197.588 67.2418 197.591H69.598C69.7315 197.591 69.862 197.554 69.9719 197.485C70.0819 197.417 70.1662 197.32 70.2136 197.207L71.0414 195.178C71.0791 195.061 71.1577 194.958 71.2655 194.885C71.3733 194.812 71.5045 194.772 71.6393 194.772C71.7741 194.772 71.9053 194.812 72.0131 194.885C72.1209 194.958 72.1996 195.061 72.2372 195.178Z" fill="#3C8AFF"/>
<path d="M71.5108 215.814L73.8953 218.098H72.3457C72.2197 218.099 72.0948 218.077 71.9788 218.032C71.8629 217.987 71.7584 217.922 71.672 217.839C71.5856 217.756 71.5191 217.657 71.4767 217.55C71.4344 217.443 71.417 217.329 71.4258 217.215L71.5108 215.814ZM70.881 214.246L70.782 215.775L70.69 217.177C70.6777 217.381 70.7109 217.585 70.7875 217.777C70.864 217.97 70.9825 218.146 71.1357 218.296C71.2914 218.445 71.4791 218.563 71.6872 218.643C71.8953 218.724 72.1194 218.765 72.3457 218.764H75.5863L74.4259 217.644L72.0485 215.359L70.881 214.246Z" fill="white"/>
<path opacity="0.2" d="M129.417 176.968H84.2814C84.0988 176.969 83.9178 176.936 83.7497 176.871C83.5817 176.806 83.4303 176.711 83.3048 176.591C83.1793 176.471 83.0826 176.329 83.0205 176.173C82.9585 176.018 82.9325 175.853 82.9441 175.688C82.974 175.343 83.1451 175.021 83.4238 174.784C83.7026 174.548 84.0689 174.414 84.4512 174.408H129.58C129.763 174.407 129.944 174.44 130.112 174.505C130.28 174.569 130.431 174.665 130.557 174.785C130.682 174.905 130.779 175.047 130.841 175.202C130.903 175.358 130.929 175.523 130.917 175.688C130.889 176.032 130.719 176.354 130.442 176.591C130.164 176.828 129.799 176.962 129.417 176.968Z" fill="#3C8AFF"/>
<path opacity="0.2" d="M120.865 181.217H84.0146C83.8317 181.218 83.6504 181.185 83.482 181.12C83.3136 181.056 83.1617 180.96 83.0357 180.84C82.9097 180.72 82.8123 180.578 82.7494 180.423C82.6865 180.268 82.6596 180.102 82.6702 179.937C82.7001 179.592 82.8712 179.27 83.15 179.033C83.4287 178.797 83.795 178.663 84.1774 178.657H121.028C121.211 178.655 121.393 178.687 121.561 178.752C121.73 178.816 121.883 178.911 122.009 179.032C122.135 179.152 122.232 179.294 122.295 179.45C122.357 179.606 122.384 179.772 122.372 179.937C122.34 180.281 122.169 180.603 121.89 180.839C121.612 181.075 121.247 181.21 120.865 181.217Z" fill="#3C8AFF"/>
<path opacity="0.2" d="M127.932 199.862H115.479C115.096 199.866 114.729 200 114.449 200.237C114.17 200.474 114 200.797 113.971 201.142C113.96 201.307 113.986 201.472 114.048 201.628C114.11 201.783 114.207 201.925 114.332 202.045C114.458 202.165 114.609 202.261 114.777 202.325C114.945 202.39 115.126 202.423 115.309 202.422H127.762C128.145 202.418 128.512 202.284 128.791 202.047C129.07 201.81 129.241 201.487 129.269 201.142C129.281 200.977 129.255 200.812 129.193 200.657C129.131 200.501 129.034 200.359 128.908 200.239C128.783 200.119 128.631 200.024 128.463 199.959C128.295 199.894 128.114 199.861 127.932 199.862Z" fill="#3C8AFF"/>
<path opacity="0.2" d="M108.198 199.862H82.8033C82.4205 199.866 82.0532 200 81.7742 200.237C81.4951 200.474 81.3245 200.797 81.2962 201.142C81.2834 201.307 81.3087 201.473 81.3704 201.629C81.432 201.784 81.5288 201.927 81.6544 202.047C81.7801 202.168 81.932 202.263 82.1005 202.327C82.269 202.392 82.4505 202.424 82.6335 202.422H108.035C108.417 202.417 108.784 202.282 109.063 202.046C109.341 201.809 109.512 201.487 109.542 201.142C109.554 200.977 109.528 200.811 109.465 200.655C109.403 200.499 109.305 200.357 109.179 200.237C109.053 200.117 108.901 200.021 108.732 199.957C108.563 199.892 108.381 199.86 108.198 199.862Z" fill="#3C8AFF"/>
<path opacity="0.2" d="M119.93 195.626H83.0723C82.6895 195.63 82.3223 195.763 82.0432 196C81.7641 196.237 81.5935 196.56 81.5652 196.906C81.5536 197.071 81.5796 197.236 81.6416 197.391C81.7037 197.547 81.8004 197.689 81.9259 197.809C82.0514 197.929 82.2028 198.024 82.3709 198.089C82.5389 198.154 82.7199 198.187 82.9025 198.185H119.753C120.135 198.18 120.501 198.046 120.78 197.809C121.059 197.573 121.23 197.25 121.26 196.906C121.271 196.741 121.246 196.577 121.184 196.422C121.122 196.267 121.026 196.125 120.902 196.005C120.777 195.885 120.626 195.79 120.459 195.724C120.292 195.659 120.112 195.626 119.93 195.626Z" fill="#3C8AFF"/>
<rect x="0.441926" y="0.490464" width="23.7221" height="23.7221" rx="11.8611" transform="matrix(0.999914 0.0130896 -0.0908064 0.995869 124.982 85.4269)" fill="#2C68BF" stroke="white" stroke-width="0.972218"/>
<path d="M132.018 99.1251L134.949 101.63L141.197 95.4917" stroke="white" stroke-width="1.20135" stroke-linecap="round" stroke-linejoin="round"/>
</g>
</svg>
