<svg width="14" height="14" viewBox="0 0 14 14" fill="none" xmlns="http://www.w3.org/2000/svg">
<path fill-rule="evenodd" clip-rule="evenodd" d="M5.60068 0H12.6007C12.972 0 13.3281 0.1475 13.5906 0.41005C13.8532 0.672601 14.0007 1.0287 14.0007 1.4V8.4C14.0007 8.7713 13.8532 9.1274 13.5906 9.38995C13.3281 9.6525 12.972 9.8 12.6007 9.8H11.2007V4.2C11.2007 3.8287 11.0532 3.4726 10.7906 3.21005C10.5281 2.9475 10.172 2.8 9.80068 2.8H4.20068V1.4C4.20068 1.0287 4.34818 0.672601 4.61073 0.41005C4.87329 0.1475 5.22938 0 5.60068 0ZM1.4 4.20004H8.4C9.1721 4.20004 9.8 4.82794 9.8 5.60004V12.6C9.8 13.3721 9.1721 14 8.4 14H1.4C0.6279 14 0 13.3721 0 12.6V5.60004C0 4.82794 0.6279 4.20004 1.4 4.20004Z" fill="#3C8AFF"/>
</svg>
